%FSLAX42Y42*%
%MOMM*%
G71*
G01*
G75*
G04 Layer_Physical_Order=1*
G04 Layer_Color=255*
%ADD10C,0.25*%
%ADD11C,0.30*%
%ADD12C,0.40*%
%ADD13C,0.50*%
%ADD14C,0.70*%
%ADD15O,0.40X1.00*%
%ADD16O,1.90X1.50*%
%ADD17R,1.90X1.50*%
%ADD18C,1.90*%
%ADD19O,1.50X1.90*%
%ADD20R,1.50X1.90*%
%ADD21C,1.50*%
%ADD22R,1.50X1.50*%
%ADD23R,1.90X1.90*%
%ADD24R,1.90X1.90*%
%ADD25C,4.50*%
%ADD26C,0.90*%
G36*
X164Y2709D02*
X327Y2694D01*
X489Y2670D01*
X649Y2635D01*
X807Y2591D01*
X962Y2538D01*
X1114Y2475D01*
X1261Y2403D01*
X1404Y2323D01*
X1542Y2234D01*
X1674Y2136D01*
X1800Y2031D01*
X1919Y1919D01*
X2031Y1800D01*
X2136Y1674D01*
X2234Y1542D01*
X2323Y1404D01*
X2403Y1261D01*
X2475Y1114D01*
X2538Y962D01*
X2591Y807D01*
X2635Y649D01*
X2670Y489D01*
X2694Y327D01*
X2709Y164D01*
X2714Y0D01*
X2709Y-164D01*
X2694Y-327D01*
X2682Y-409D01*
X2676Y-448D01*
X2676Y-448D01*
X2676Y-448D01*
X2670Y-489D01*
X2635Y-649D01*
X2591Y-807D01*
X2538Y-962D01*
X2475Y-1114D01*
X2403Y-1261D01*
X2323Y-1404D01*
X2234Y-1542D01*
X2136Y-1674D01*
X2031Y-1800D01*
X1919Y-1919D01*
X1800Y-2031D01*
X1674Y-2136D01*
X1542Y-2234D01*
X1404Y-2323D01*
X1261Y-2403D01*
X1114Y-2475D01*
X962Y-2538D01*
X807Y-2591D01*
X649Y-2635D01*
X489Y-2670D01*
X327Y-2694D01*
X164Y-2709D01*
X0Y-2714D01*
X-164Y-2709D01*
X-327Y-2694D01*
X-489Y-2670D01*
X-649Y-2635D01*
X-807Y-2591D01*
X-962Y-2538D01*
X-1114Y-2475D01*
X-1261Y-2403D01*
X-1404Y-2323D01*
X-1542Y-2234D01*
X-1674Y-2136D01*
X-1800Y-2031D01*
X-1919Y-1919D01*
X-2031Y-1800D01*
X-2136Y-1674D01*
X-2234Y-1542D01*
X-2323Y-1404D01*
X-2403Y-1261D01*
X-2475Y-1114D01*
X-2538Y-962D01*
X-2591Y-807D01*
X-2635Y-649D01*
X-2670Y-489D01*
X-2676Y-444D01*
X-2682Y-409D01*
X-2682Y-409D01*
X-2682Y-409D01*
X-2694Y-327D01*
X-2709Y-164D01*
X-2714Y-0D01*
Y0D01*
X-2709Y164D01*
X-2694Y327D01*
X-2670Y489D01*
X-2635Y649D01*
X-2591Y807D01*
X-2538Y962D01*
X-2475Y1114D01*
X-2403Y1261D01*
X-2323Y1404D01*
X-2234Y1542D01*
X-2136Y1674D01*
X-2031Y1800D01*
X-1919Y1919D01*
X-1800Y2031D01*
X-1674Y2136D01*
X-1542Y2234D01*
X-1404Y2323D01*
X-1261Y2403D01*
X-1114Y2475D01*
X-962Y2538D01*
X-807Y2591D01*
X-649Y2635D01*
X-489Y2670D01*
X-327Y2694D01*
X-164Y2709D01*
X0Y2714D01*
X164Y2709D01*
D02*
G37*
%LPC*%
G36*
X-406Y-315D02*
X-423Y-318D01*
X-439Y-324D01*
X-453Y-335D01*
X-463Y-348D01*
X-470Y-364D01*
X-472Y-381D01*
X-470Y-398D01*
X-463Y-414D01*
X-453Y-427D01*
X-440Y-437D01*
Y-914D01*
X-437Y-927D01*
X-430Y-938D01*
X-430Y-938D01*
X-430Y-938D01*
X-114Y-1254D01*
X-116Y-1270D01*
X-114Y-1287D01*
X-108Y-1303D01*
X-97Y-1316D01*
X-84Y-1327D01*
X-68Y-1333D01*
X-51Y-1336D01*
X-34Y-1333D01*
X-18Y-1327D01*
X-4Y-1316D01*
X6Y-1303D01*
X13Y-1287D01*
X15Y-1270D01*
X13Y-1253D01*
X6Y-1237D01*
X-4Y-1224D01*
X-18Y-1213D01*
X-34Y-1207D01*
X-51Y-1204D01*
X-67Y-1207D01*
X-100Y-1174D01*
X-93Y-1163D01*
X-80Y-1168D01*
X-63Y-1170D01*
X-47Y-1168D01*
X-31Y-1162D01*
X-17Y-1151D01*
X-7Y-1138D01*
X-0Y-1122D01*
X2Y-1105D01*
X-0Y-1088D01*
X-7Y-1072D01*
X-17Y-1059D01*
X-23Y-1054D01*
Y-953D01*
X-23Y-952D01*
X-25Y-939D01*
X-26Y-937D01*
X-35Y-924D01*
X-126Y-832D01*
X-125Y-826D01*
X-127Y-809D01*
X-134Y-793D01*
X-144Y-779D01*
X-158Y-769D01*
X-174Y-762D01*
X-190Y-760D01*
X-207Y-762D01*
X-223Y-769D01*
X-237Y-779D01*
X-247Y-793D01*
X-254Y-809D01*
X-256Y-826D01*
X-254Y-842D01*
X-247Y-858D01*
X-237Y-872D01*
X-223Y-882D01*
X-207Y-889D01*
X-190Y-891D01*
X-184Y-890D01*
X-104Y-969D01*
Y-1054D01*
X-110Y-1059D01*
X-120Y-1072D01*
X-127Y-1088D01*
X-129Y-1105D01*
X-127Y-1122D01*
X-122Y-1134D01*
X-132Y-1141D01*
X-373Y-901D01*
Y-437D01*
X-360Y-427D01*
X-350Y-414D01*
X-343Y-398D01*
X-341Y-381D01*
X-343Y-364D01*
X-350Y-348D01*
X-360Y-335D01*
X-374Y-324D01*
X-389Y-318D01*
X-406Y-315D01*
D02*
G37*
G36*
X-1892Y-1016D02*
X-1999D01*
X-1997Y-1035D01*
X-1985Y-1064D01*
X-1965Y-1089D01*
X-1940Y-1108D01*
X-1911Y-1121D01*
X-1892Y-1123D01*
Y-1016D01*
D02*
G37*
G36*
X-1760D02*
X-1867D01*
Y-1123D01*
X-1848Y-1121D01*
X-1819Y-1108D01*
X-1794Y-1089D01*
X-1774Y-1064D01*
X-1762Y-1035D01*
X-1760Y-1016D01*
D02*
G37*
G36*
X-1880Y-1141D02*
X-1910Y-1145D01*
X-1938Y-1157D01*
X-1962Y-1175D01*
X-1980Y-1199D01*
X-1992Y-1227D01*
X-1996Y-1257D01*
X-1992Y-1287D01*
X-1980Y-1315D01*
X-1962Y-1339D01*
X-1938Y-1358D01*
X-1910Y-1369D01*
X-1880Y-1373D01*
X-1850Y-1369D01*
X-1822Y-1358D01*
X-1798Y-1339D01*
X-1779Y-1315D01*
X-1768Y-1287D01*
X-1764Y-1257D01*
X-1768Y-1227D01*
X-1779Y-1199D01*
X-1798Y-1175D01*
X-1822Y-1157D01*
X-1850Y-1145D01*
X-1880Y-1141D01*
D02*
G37*
G36*
X-1626D02*
X-1656Y-1145D01*
X-1684Y-1157D01*
X-1708Y-1175D01*
X-1726Y-1199D01*
X-1738Y-1227D01*
X-1742Y-1257D01*
X-1738Y-1287D01*
X-1726Y-1315D01*
X-1708Y-1339D01*
X-1684Y-1358D01*
X-1656Y-1369D01*
X-1626Y-1373D01*
X-1596Y-1369D01*
X-1568Y-1358D01*
X-1544Y-1339D01*
X-1525Y-1315D01*
X-1514Y-1287D01*
X-1510Y-1257D01*
X-1514Y-1227D01*
X-1525Y-1199D01*
X-1544Y-1175D01*
X-1568Y-1157D01*
X-1596Y-1145D01*
X-1626Y-1141D01*
D02*
G37*
G36*
X-1257Y-1142D02*
X-1487D01*
Y-1372D01*
X-1257D01*
Y-1142D01*
D02*
G37*
G36*
X-2134Y-887D02*
X-2164Y-891D01*
X-2192Y-903D01*
X-2216Y-921D01*
X-2234Y-945D01*
X-2246Y-973D01*
X-2250Y-1003D01*
X-2246Y-1033D01*
X-2234Y-1061D01*
X-2216Y-1085D01*
X-2192Y-1104D01*
X-2164Y-1115D01*
X-2134Y-1119D01*
X-2104Y-1115D01*
X-2076Y-1104D01*
X-2052Y-1085D01*
X-2033Y-1061D01*
X-2022Y-1033D01*
X-2018Y-1003D01*
X-2022Y-973D01*
X-2033Y-945D01*
X-2052Y-921D01*
X-2076Y-903D01*
X-2104Y-891D01*
X-2134Y-887D01*
D02*
G37*
G36*
X-1658Y-172D02*
X-1848D01*
Y-362D01*
X-1658D01*
Y-172D01*
D02*
G37*
G36*
X-2300Y246D02*
X-2348Y241D01*
X-2394Y227D01*
X-2437Y205D01*
X-2474Y174D01*
X-2505Y137D01*
X-2527Y94D01*
X-2541Y48D01*
X-2546Y0D01*
X-2541Y-48D01*
X-2527Y-94D01*
X-2505Y-137D01*
X-2474Y-174D01*
X-2437Y-205D01*
X-2394Y-227D01*
X-2348Y-241D01*
X-2300Y-246D01*
X-2252Y-241D01*
X-2206Y-227D01*
X-2163Y-205D01*
X-2126Y-174D01*
X-2095Y-137D01*
X-2073Y-94D01*
X-2059Y-48D01*
X-2054Y0D01*
X-2059Y48D01*
X-2073Y94D01*
X-2095Y137D01*
X-2126Y174D01*
X-2163Y205D01*
X-2206Y227D01*
X-2252Y241D01*
X-2300Y246D01*
D02*
G37*
G36*
X2300D02*
X2252Y241D01*
X2206Y227D01*
X2163Y205D01*
X2126Y174D01*
X2095Y137D01*
X2073Y94D01*
X2059Y48D01*
X2054Y0D01*
X2059Y-48D01*
X2073Y-94D01*
X2095Y-137D01*
X2126Y-174D01*
X2163Y-205D01*
X2206Y-227D01*
X2252Y-241D01*
X2300Y-246D01*
X2348Y-241D01*
X2394Y-227D01*
X2437Y-205D01*
X2474Y-174D01*
X2505Y-137D01*
X2527Y-94D01*
X2541Y-48D01*
X2546Y0D01*
X2541Y48D01*
X2527Y94D01*
X2505Y137D01*
X2474Y174D01*
X2437Y205D01*
X2394Y227D01*
X2348Y241D01*
X2300Y246D01*
D02*
G37*
G36*
X-1626Y-887D02*
X-1656Y-891D01*
X-1684Y-903D01*
X-1708Y-921D01*
X-1726Y-945D01*
X-1738Y-973D01*
X-1742Y-1003D01*
X-1738Y-1033D01*
X-1726Y-1061D01*
X-1708Y-1085D01*
X-1684Y-1104D01*
X-1656Y-1115D01*
X-1626Y-1119D01*
X-1596Y-1115D01*
X-1568Y-1104D01*
X-1544Y-1085D01*
X-1525Y-1061D01*
X-1514Y-1033D01*
X-1510Y-1003D01*
X-1514Y-973D01*
X-1525Y-945D01*
X-1544Y-921D01*
X-1568Y-903D01*
X-1596Y-891D01*
X-1626Y-887D01*
D02*
G37*
G36*
X-1892Y-884D02*
X-1911Y-886D01*
X-1940Y-898D01*
X-1965Y-917D01*
X-1985Y-943D01*
X-1997Y-972D01*
X-1999Y-991D01*
X-1892D01*
Y-884D01*
D02*
G37*
G36*
X-1867D02*
Y-991D01*
X-1760D01*
X-1762Y-972D01*
X-1774Y-943D01*
X-1794Y-917D01*
X-1819Y-898D01*
X-1848Y-886D01*
X-1867Y-884D01*
D02*
G37*
G36*
X112Y-2254D02*
X72D01*
X47Y-2257D01*
X24Y-2267D01*
X4Y-2282D01*
X-11Y-2302D01*
X-21Y-2325D01*
X-24Y-2350D01*
X-21Y-2375D01*
X-11Y-2398D01*
X4Y-2418D01*
X24Y-2433D01*
X47Y-2443D01*
X72Y-2446D01*
X112D01*
X137Y-2443D01*
X160Y-2433D01*
X180Y-2418D01*
X195Y-2398D01*
X205Y-2375D01*
X208Y-2350D01*
X205Y-2325D01*
X195Y-2302D01*
X180Y-2282D01*
X160Y-2267D01*
X137Y-2257D01*
X112Y-2254D01*
D02*
G37*
G36*
X366D02*
X326D01*
X301Y-2257D01*
X278Y-2267D01*
X258Y-2282D01*
X243Y-2302D01*
X233Y-2325D01*
X230Y-2350D01*
X233Y-2375D01*
X243Y-2398D01*
X258Y-2418D01*
X278Y-2433D01*
X301Y-2443D01*
X326Y-2446D01*
X366D01*
X391Y-2443D01*
X414Y-2433D01*
X434Y-2418D01*
X449Y-2398D01*
X459Y-2375D01*
X462Y-2350D01*
X459Y-2325D01*
X449Y-2302D01*
X434Y-2282D01*
X414Y-2267D01*
X391Y-2257D01*
X366Y-2254D01*
D02*
G37*
G36*
X715Y-2255D02*
X485D01*
Y-2445D01*
X715D01*
Y-2255D01*
D02*
G37*
G36*
X-650Y-2254D02*
X-690D01*
X-715Y-2257D01*
X-738Y-2267D01*
X-758Y-2282D01*
X-773Y-2302D01*
X-783Y-2325D01*
X-786Y-2350D01*
X-783Y-2375D01*
X-773Y-2398D01*
X-758Y-2418D01*
X-738Y-2433D01*
X-715Y-2443D01*
X-690Y-2446D01*
X-650D01*
X-625Y-2443D01*
X-602Y-2433D01*
X-582Y-2418D01*
X-567Y-2398D01*
X-557Y-2375D01*
X-554Y-2350D01*
X-557Y-2325D01*
X-567Y-2302D01*
X-582Y-2282D01*
X-602Y-2267D01*
X-625Y-2257D01*
X-650Y-2254D01*
D02*
G37*
G36*
X-396D02*
X-436D01*
X-461Y-2257D01*
X-484Y-2267D01*
X-504Y-2282D01*
X-519Y-2302D01*
X-529Y-2325D01*
X-532Y-2350D01*
X-529Y-2375D01*
X-519Y-2398D01*
X-504Y-2418D01*
X-484Y-2433D01*
X-461Y-2443D01*
X-436Y-2446D01*
X-396D01*
X-371Y-2443D01*
X-348Y-2433D01*
X-328Y-2418D01*
X-313Y-2398D01*
X-303Y-2375D01*
X-300Y-2350D01*
X-303Y-2325D01*
X-313Y-2302D01*
X-328Y-2282D01*
X-348Y-2267D01*
X-371Y-2257D01*
X-396Y-2254D01*
D02*
G37*
G36*
X-142D02*
X-182D01*
X-207Y-2257D01*
X-230Y-2267D01*
X-250Y-2282D01*
X-265Y-2302D01*
X-275Y-2325D01*
X-278Y-2350D01*
X-275Y-2375D01*
X-265Y-2398D01*
X-250Y-2418D01*
X-230Y-2433D01*
X-207Y-2443D01*
X-182Y-2446D01*
X-142D01*
X-117Y-2443D01*
X-94Y-2433D01*
X-74Y-2418D01*
X-59Y-2398D01*
X-49Y-2375D01*
X-46Y-2350D01*
X-49Y-2325D01*
X-59Y-2302D01*
X-74Y-2282D01*
X-94Y-2267D01*
X-117Y-2257D01*
X-142Y-2254D01*
D02*
G37*
G36*
X-650Y-2000D02*
X-690D01*
X-715Y-2003D01*
X-738Y-2013D01*
X-758Y-2028D01*
X-773Y-2048D01*
X-783Y-2071D01*
X-786Y-2096D01*
X-783Y-2121D01*
X-773Y-2144D01*
X-758Y-2164D01*
X-738Y-2179D01*
X-715Y-2189D01*
X-690Y-2192D01*
X-650D01*
X-625Y-2189D01*
X-602Y-2179D01*
X-582Y-2164D01*
X-567Y-2144D01*
X-557Y-2121D01*
X-554Y-2096D01*
X-557Y-2071D01*
X-567Y-2048D01*
X-582Y-2028D01*
X-602Y-2013D01*
X-625Y-2003D01*
X-650Y-2000D01*
D02*
G37*
G36*
X366D02*
X326D01*
X301Y-2003D01*
X278Y-2013D01*
X258Y-2028D01*
X243Y-2048D01*
X233Y-2071D01*
X230Y-2096D01*
X233Y-2121D01*
X243Y-2144D01*
X258Y-2164D01*
X278Y-2179D01*
X301Y-2189D01*
X326Y-2192D01*
X366D01*
X391Y-2189D01*
X414Y-2179D01*
X434Y-2164D01*
X449Y-2144D01*
X459Y-2121D01*
X462Y-2096D01*
X459Y-2071D01*
X449Y-2048D01*
X434Y-2028D01*
X414Y-2013D01*
X391Y-2003D01*
X366Y-2000D01*
D02*
G37*
G36*
X620D02*
X580D01*
X555Y-2003D01*
X532Y-2013D01*
X512Y-2028D01*
X497Y-2048D01*
X487Y-2071D01*
X484Y-2096D01*
X487Y-2121D01*
X497Y-2144D01*
X512Y-2164D01*
X532Y-2179D01*
X555Y-2189D01*
X580Y-2192D01*
X620D01*
X645Y-2189D01*
X668Y-2179D01*
X688Y-2164D01*
X703Y-2144D01*
X713Y-2121D01*
X716Y-2096D01*
X713Y-2071D01*
X703Y-2048D01*
X688Y-2028D01*
X668Y-2013D01*
X645Y-2003D01*
X620Y-2000D01*
D02*
G37*
G36*
X-2134Y-1141D02*
X-2164Y-1145D01*
X-2192Y-1157D01*
X-2216Y-1175D01*
X-2234Y-1199D01*
X-2246Y-1227D01*
X-2250Y-1257D01*
X-2246Y-1287D01*
X-2234Y-1315D01*
X-2216Y-1339D01*
X-2192Y-1358D01*
X-2164Y-1369D01*
X-2134Y-1373D01*
X-2104Y-1369D01*
X-2076Y-1358D01*
X-2052Y-1339D01*
X-2033Y-1315D01*
X-2022Y-1287D01*
X-2018Y-1257D01*
X-2022Y-1227D01*
X-2033Y-1199D01*
X-2052Y-1175D01*
X-2076Y-1157D01*
X-2104Y-1145D01*
X-2134Y-1141D01*
D02*
G37*
G36*
X-396Y-2000D02*
X-436D01*
X-461Y-2003D01*
X-484Y-2013D01*
X-504Y-2028D01*
X-519Y-2048D01*
X-529Y-2071D01*
X-532Y-2096D01*
X-529Y-2121D01*
X-519Y-2144D01*
X-504Y-2164D01*
X-484Y-2179D01*
X-461Y-2189D01*
X-436Y-2192D01*
X-396D01*
X-371Y-2189D01*
X-348Y-2179D01*
X-328Y-2164D01*
X-313Y-2144D01*
X-303Y-2121D01*
X-300Y-2096D01*
X-303Y-2071D01*
X-313Y-2048D01*
X-328Y-2028D01*
X-348Y-2013D01*
X-371Y-2003D01*
X-396Y-2000D01*
D02*
G37*
G36*
X-142D02*
X-182D01*
X-207Y-2003D01*
X-230Y-2013D01*
X-250Y-2028D01*
X-265Y-2048D01*
X-275Y-2071D01*
X-278Y-2096D01*
X-275Y-2121D01*
X-265Y-2144D01*
X-250Y-2164D01*
X-230Y-2179D01*
X-207Y-2189D01*
X-182Y-2192D01*
X-142D01*
X-117Y-2189D01*
X-94Y-2179D01*
X-74Y-2164D01*
X-59Y-2144D01*
X-49Y-2121D01*
X-46Y-2096D01*
X-49Y-2071D01*
X-59Y-2048D01*
X-74Y-2028D01*
X-94Y-2013D01*
X-117Y-2003D01*
X-142Y-2000D01*
D02*
G37*
G36*
X112D02*
X72D01*
X47Y-2003D01*
X24Y-2013D01*
X4Y-2028D01*
X-11Y-2048D01*
X-21Y-2071D01*
X-24Y-2096D01*
X-21Y-2121D01*
X-11Y-2144D01*
X4Y-2164D01*
X24Y-2179D01*
X47Y-2189D01*
X72Y-2192D01*
X112D01*
X137Y-2189D01*
X160Y-2179D01*
X180Y-2164D01*
X195Y-2144D01*
X205Y-2121D01*
X208Y-2096D01*
X205Y-2071D01*
X195Y-2048D01*
X180Y-2028D01*
X160Y-2013D01*
X137Y-2003D01*
X112Y-2000D01*
D02*
G37*
G36*
X-1029Y1513D02*
X-1046Y1511D01*
X-1061Y1505D01*
X-1075Y1494D01*
X-1085Y1481D01*
X-1092Y1465D01*
X-1094Y1448D01*
X-1092Y1431D01*
X-1085Y1415D01*
X-1075Y1401D01*
X-1061Y1391D01*
X-1061Y1391D01*
Y1378D01*
X-1061Y1378D01*
X-1075Y1367D01*
X-1085Y1354D01*
X-1092Y1338D01*
X-1094Y1321D01*
X-1092Y1304D01*
X-1085Y1288D01*
X-1075Y1274D01*
X-1075Y1274D01*
Y819D01*
X-1556Y337D01*
X-1566Y322D01*
X-1570Y305D01*
Y-461D01*
X-1570Y-462D01*
X-1581Y-475D01*
X-1587Y-491D01*
X-1590Y-508D01*
X-1587Y-525D01*
X-1581Y-541D01*
X-1570Y-554D01*
X-1570Y-555D01*
Y-749D01*
X-1566Y-767D01*
X-1556Y-782D01*
X-1468Y-871D01*
X-1453Y-881D01*
X-1435Y-884D01*
X-1417D01*
X-1414Y-897D01*
X-1430Y-903D01*
X-1454Y-921D01*
X-1472Y-945D01*
X-1484Y-973D01*
X-1488Y-1003D01*
X-1484Y-1033D01*
X-1472Y-1061D01*
X-1454Y-1085D01*
X-1430Y-1104D01*
X-1402Y-1115D01*
X-1372Y-1119D01*
X-1342Y-1115D01*
X-1314Y-1104D01*
X-1291Y-1087D01*
X-1085Y-1293D01*
Y-1346D01*
Y-1346D01*
X-1085Y-1346D01*
X-1085Y-1346D01*
X-1081Y-1368D01*
X-1068Y-1386D01*
X-929Y-1526D01*
X-929Y-1526D01*
X-929Y-1526D01*
X-910Y-1538D01*
X-889Y-1542D01*
X-467D01*
Y-1626D01*
Y-1626D01*
X-467Y-1626D01*
X-467Y-1626D01*
X-465Y-1639D01*
X-457Y-1651D01*
X-432Y-1676D01*
X-432Y-1676D01*
X-432Y-1676D01*
X-420Y-1684D01*
X-406Y-1687D01*
X695D01*
X703Y-1697D01*
X717Y-1708D01*
X732Y-1714D01*
X749Y-1717D01*
X766Y-1714D01*
X782Y-1708D01*
X796Y-1697D01*
X806Y-1684D01*
X813Y-1668D01*
X815Y-1651D01*
X813Y-1634D01*
X806Y-1618D01*
X796Y-1605D01*
X782Y-1594D01*
X766Y-1588D01*
X749Y-1585D01*
X732Y-1588D01*
X717Y-1594D01*
X703Y-1605D01*
X695Y-1615D01*
X-392D01*
X-396Y-1611D01*
Y-1540D01*
X-385Y-1532D01*
X-375Y-1519D01*
X-368Y-1503D01*
X-366Y-1486D01*
X-368Y-1469D01*
X-375Y-1453D01*
X-385Y-1440D01*
X-399Y-1429D01*
X-415Y-1423D01*
X-432Y-1420D01*
X-449Y-1423D01*
X-465Y-1429D01*
X-465Y-1430D01*
X-866D01*
X-973Y-1323D01*
Y-1270D01*
X-977Y-1249D01*
X-989Y-1230D01*
X-1230Y-989D01*
X-1249Y-977D01*
X-1259Y-975D01*
X-1260Y-973D01*
X-1271Y-945D01*
X-1290Y-921D01*
X-1314Y-903D01*
X-1329Y-897D01*
X-1326Y-884D01*
X-1289D01*
X-1214Y-960D01*
X-1199Y-969D01*
X-1181Y-973D01*
X-1117D01*
X-1100Y-969D01*
X-1085Y-960D01*
X-1055Y-929D01*
X-1043Y-933D01*
X-1041Y-944D01*
X-1035Y-960D01*
X-1024Y-973D01*
X-1011Y-984D01*
X-1010Y-984D01*
Y-997D01*
X-1011Y-997D01*
X-1024Y-1008D01*
X-1035Y-1021D01*
X-1041Y-1037D01*
X-1043Y-1054D01*
X-1041Y-1071D01*
X-1035Y-1087D01*
X-1024Y-1100D01*
X-1011Y-1111D01*
X-995Y-1117D01*
X-978Y-1120D01*
X-961Y-1117D01*
X-945Y-1111D01*
X-932Y-1100D01*
X-922Y-1087D01*
X-724D01*
X-711Y-1085D01*
X-700Y-1078D01*
Y-1078D01*
X-700Y-1078D01*
X-700Y-1078D01*
X-700D01*
X-566Y-943D01*
X-554Y-948D01*
Y-1061D01*
X-567Y-1071D01*
X-577Y-1085D01*
X-584Y-1101D01*
X-586Y-1118D01*
X-584Y-1135D01*
X-577Y-1150D01*
X-567Y-1164D01*
X-553Y-1174D01*
X-538Y-1181D01*
X-521Y-1183D01*
X-504Y-1181D01*
X-488Y-1174D01*
X-474Y-1164D01*
X-464Y-1150D01*
X-457Y-1135D01*
X-455Y-1118D01*
X-457Y-1101D01*
X-464Y-1085D01*
X-474Y-1071D01*
X-487Y-1061D01*
Y-927D01*
X-490Y-914D01*
X-497Y-904D01*
X-525Y-875D01*
Y-831D01*
X-512Y-821D01*
X-502Y-807D01*
X-495Y-792D01*
X-493Y-775D01*
X-495Y-758D01*
X-502Y-742D01*
X-512Y-728D01*
X-526Y-718D01*
X-542Y-711D01*
X-559Y-709D01*
X-576Y-711D01*
X-592Y-718D01*
X-605Y-728D01*
X-616Y-742D01*
X-622Y-758D01*
X-624Y-775D01*
X-622Y-792D01*
X-616Y-807D01*
X-605Y-821D01*
X-592Y-831D01*
Y-875D01*
X-738Y-1021D01*
X-922D01*
X-932Y-1008D01*
X-945Y-997D01*
X-946Y-997D01*
Y-984D01*
X-945Y-984D01*
X-932Y-973D01*
X-922Y-960D01*
X-800D01*
X-787Y-958D01*
X-777Y-951D01*
Y-951D01*
X-777Y-951D01*
X-777Y-951D01*
X-777D01*
X-650Y-824D01*
X-642Y-813D01*
X-640Y-800D01*
Y-742D01*
X-627Y-732D01*
X-616Y-719D01*
X-610Y-703D01*
X-608Y-686D01*
X-610Y-669D01*
X-616Y-653D01*
X-627Y-639D01*
X-640Y-629D01*
X-656Y-622D01*
X-673Y-620D01*
X-690Y-622D01*
X-706Y-629D01*
X-719Y-639D01*
X-730Y-653D01*
X-736Y-669D01*
X-739Y-686D01*
X-736Y-703D01*
X-730Y-719D01*
X-719Y-732D01*
X-706Y-742D01*
Y-786D01*
X-814Y-894D01*
X-922D01*
X-932Y-881D01*
X-945Y-870D01*
X-961Y-864D01*
X-972Y-862D01*
X-976Y-850D01*
X-654Y-528D01*
X-593D01*
X-592Y-529D01*
X-579Y-539D01*
X-563Y-546D01*
X-546Y-548D01*
X-529Y-546D01*
X-513Y-539D01*
X-500Y-529D01*
X-489Y-515D01*
X-483Y-500D01*
X-481Y-483D01*
X-483Y-466D01*
X-489Y-450D01*
X-500Y-436D01*
X-513Y-426D01*
X-529Y-419D01*
X-546Y-417D01*
X-563Y-419D01*
X-579Y-426D01*
X-592Y-436D01*
X-593Y-437D01*
X-673D01*
X-691Y-440D01*
X-706Y-450D01*
X-1055Y-800D01*
X-1067Y-796D01*
X-1074Y-780D01*
X-1084Y-766D01*
X-1097Y-756D01*
Y-741D01*
X-1074D01*
X-1061Y-739D01*
X-1050Y-731D01*
X-354Y-35D01*
X-320D01*
X-266Y-89D01*
X-255Y-96D01*
X-242Y-98D01*
X-171D01*
X-158Y-96D01*
X-158Y-96D01*
X-158Y-96D01*
D01*
X-158Y-96D01*
X-158Y-96D01*
X-147Y-89D01*
X-94Y-35D01*
X11D01*
X15Y-47D01*
X4Y-55D01*
X-6Y-69D01*
X-13Y-85D01*
X-15Y-102D01*
X-13Y-119D01*
X-12Y-120D01*
X-22Y-128D01*
X-31Y-121D01*
X-47Y-114D01*
X-63Y-112D01*
X-80Y-114D01*
X-96Y-121D01*
X-110Y-131D01*
X-120Y-145D01*
X-127Y-161D01*
X-129Y-178D01*
X-127Y-195D01*
X-120Y-211D01*
X-110Y-224D01*
X-96Y-235D01*
X-80Y-241D01*
X-63Y-243D01*
X-47Y-241D01*
X-31Y-235D01*
X-17Y-224D01*
X-8Y-213D01*
X83D01*
X96Y-210D01*
X107Y-203D01*
Y-203D01*
X107Y-203D01*
X107Y-203D01*
X107D01*
X129Y-180D01*
X247D01*
X271Y-204D01*
Y-458D01*
X274Y-471D01*
X281Y-481D01*
X302Y-502D01*
X295Y-513D01*
X284Y-508D01*
X267Y-506D01*
X250Y-508D01*
X234Y-515D01*
X220Y-525D01*
X210Y-539D01*
X203Y-555D01*
X201Y-572D01*
X203Y-588D01*
X210Y-604D01*
X220Y-618D01*
X234Y-628D01*
D01*
X233Y-639D01*
X223Y-653D01*
X216Y-669D01*
X214Y-686D01*
X215Y-697D01*
X204Y-703D01*
X181Y-680D01*
X171Y-673D01*
X158Y-671D01*
X74D01*
X65Y-661D01*
X66Y-660D01*
X63Y-643D01*
X57Y-628D01*
X46Y-614D01*
X33Y-604D01*
X17Y-597D01*
X0Y-595D01*
X-17Y-597D01*
X-33Y-604D01*
X-46Y-614D01*
X-57Y-628D01*
X-57Y-629D01*
X-70D01*
X-70Y-628D01*
X-81Y-614D01*
X-94Y-604D01*
X-110Y-597D01*
X-127Y-595D01*
X-144Y-597D01*
X-160Y-604D01*
X-173Y-614D01*
X-184Y-628D01*
X-190Y-643D01*
X-193Y-660D01*
X-190Y-677D01*
X-184Y-693D01*
X-173Y-707D01*
X-160Y-717D01*
X-144Y-724D01*
X-127Y-726D01*
X-111Y-724D01*
X-62Y-773D01*
X-62Y-773D01*
X-62Y-773D01*
X-51Y-780D01*
X-38Y-783D01*
X125D01*
X471Y-1128D01*
X482Y-1136D01*
X495Y-1138D01*
X820D01*
X830Y-1151D01*
X844Y-1162D01*
X859Y-1168D01*
X876Y-1170D01*
X893Y-1168D01*
X909Y-1162D01*
X923Y-1151D01*
X933Y-1138D01*
X940Y-1122D01*
X942Y-1105D01*
X940Y-1088D01*
X933Y-1072D01*
X933Y-1072D01*
X939Y-1061D01*
X1085D01*
X1364Y-1339D01*
Y-1379D01*
X1351Y-1389D01*
X1340Y-1402D01*
X1334Y-1418D01*
X1331Y-1435D01*
X1334Y-1452D01*
X1340Y-1468D01*
X1351Y-1481D01*
X1364Y-1492D01*
X1380Y-1498D01*
X1397Y-1501D01*
X1414Y-1498D01*
X1430Y-1492D01*
X1443Y-1481D01*
X1454Y-1468D01*
X1460Y-1452D01*
X1463Y-1435D01*
X1460Y-1418D01*
X1454Y-1402D01*
X1443Y-1389D01*
X1430Y-1379D01*
Y-1325D01*
X1428Y-1312D01*
X1421Y-1302D01*
X1123Y-1004D01*
X1116Y-999D01*
X1112Y-996D01*
X1099Y-994D01*
X495D01*
X262Y-761D01*
X265Y-756D01*
X277Y-754D01*
X466Y-943D01*
X480Y-952D01*
X482Y-953D01*
X495Y-955D01*
X495Y-955D01*
X534D01*
X538Y-961D01*
X551Y-971D01*
X567Y-978D01*
X584Y-980D01*
X601Y-978D01*
X617Y-971D01*
X631Y-961D01*
X635Y-955D01*
X876D01*
X881Y-961D01*
X894Y-971D01*
X910Y-978D01*
X927Y-980D01*
X944Y-978D01*
X960Y-971D01*
X973Y-961D01*
X982Y-950D01*
X1698D01*
X1706Y-961D01*
X1720Y-971D01*
X1736Y-978D01*
X1753Y-980D01*
X1770Y-978D01*
X1785Y-971D01*
X1799Y-961D01*
X1809Y-947D01*
X1816Y-931D01*
X1818Y-914D01*
X1816Y-897D01*
X1809Y-882D01*
X1799Y-868D01*
X1785Y-858D01*
X1770Y-851D01*
X1753Y-849D01*
X1736Y-851D01*
X1720Y-858D01*
X1706Y-868D01*
X1698Y-879D01*
X982D01*
X973Y-868D01*
X960Y-858D01*
X944Y-851D01*
X927Y-849D01*
X910Y-851D01*
X894Y-858D01*
X881Y-868D01*
X876Y-874D01*
X635D01*
X631Y-868D01*
X617Y-858D01*
X601Y-851D01*
X584Y-849D01*
X567Y-851D01*
X551Y-858D01*
X538Y-868D01*
X534Y-874D01*
X512D01*
X434Y-796D01*
X442Y-786D01*
X453Y-793D01*
X465Y-795D01*
X1010D01*
X1020Y-808D01*
X1034Y-819D01*
X1050Y-825D01*
X1067Y-828D01*
X1084Y-825D01*
X1100Y-819D01*
X1113Y-808D01*
X1124Y-795D01*
X1130Y-779D01*
X1132Y-762D01*
X1130Y-745D01*
X1124Y-729D01*
X1113Y-716D01*
X1100Y-705D01*
X1084Y-699D01*
X1067Y-696D01*
X1050Y-699D01*
X1034Y-705D01*
X1020Y-716D01*
X1010Y-729D01*
X774D01*
X766Y-717D01*
X766Y-717D01*
X766Y-717D01*
D01*
Y-717D01*
X1125Y-358D01*
X1429D01*
X1441Y-356D01*
X1452Y-348D01*
Y-348D01*
X1452Y-348D01*
X1452Y-348D01*
X1452D01*
X1573Y-227D01*
X1573Y-227D01*
X1573Y-227D01*
X1580Y-217D01*
X1583Y-204D01*
Y951D01*
X1635Y1004D01*
X1647Y1001D01*
X1650Y996D01*
X1668Y972D01*
X1692Y954D01*
X1720Y942D01*
X1750Y938D01*
X1780Y942D01*
X1808Y954D01*
X1832Y972D01*
X1850Y996D01*
X1862Y1024D01*
X1866Y1054D01*
X1862Y1084D01*
X1850Y1112D01*
X1832Y1136D01*
X1808Y1154D01*
X1780Y1166D01*
X1750Y1170D01*
X1720Y1166D01*
X1692Y1154D01*
X1668Y1136D01*
X1650Y1112D01*
X1639Y1087D01*
X1638D01*
X1625Y1085D01*
X1615Y1078D01*
X1544Y1007D01*
X1532Y1011D01*
Y1180D01*
X1627Y1275D01*
X1639D01*
X1650Y1250D01*
X1668Y1226D01*
X1692Y1208D01*
X1720Y1196D01*
X1750Y1192D01*
X1780Y1196D01*
X1808Y1208D01*
X1832Y1226D01*
X1850Y1250D01*
X1862Y1278D01*
X1866Y1308D01*
X1862Y1338D01*
X1850Y1366D01*
X1832Y1390D01*
X1808Y1408D01*
X1780Y1420D01*
X1750Y1424D01*
X1720Y1420D01*
X1692Y1408D01*
X1668Y1390D01*
X1650Y1366D01*
X1639Y1341D01*
X1613D01*
X1600Y1339D01*
X1589Y1332D01*
X1475Y1217D01*
X1468Y1207D01*
X1465Y1194D01*
Y-177D01*
X1396Y-246D01*
X1092D01*
X1079Y-249D01*
X1069Y-256D01*
X934Y-390D01*
X922Y-386D01*
Y-298D01*
X935Y-288D01*
X946Y-274D01*
X952Y-258D01*
X955Y-241D01*
X952Y-224D01*
X946Y-209D01*
X935Y-195D01*
X922Y-185D01*
X906Y-178D01*
X889Y-176D01*
X872Y-178D01*
X856Y-185D01*
X843Y-195D01*
X832Y-209D01*
X826Y-224D01*
X823Y-241D01*
X826Y-258D01*
X832Y-274D01*
X843Y-288D01*
X856Y-298D01*
Y-393D01*
X683Y-565D01*
X671Y-563D01*
X666Y-554D01*
X666Y-553D01*
X673Y-538D01*
X675Y-521D01*
X673Y-504D01*
X666Y-488D01*
X656Y-474D01*
X643Y-464D01*
Y-86D01*
X720Y-9D01*
X737Y-11D01*
X754Y-9D01*
X769Y-2D01*
X783Y8D01*
X793Y22D01*
X800Y37D01*
X802Y54D01*
X800Y71D01*
X793Y87D01*
X783Y101D01*
X769Y111D01*
X754Y118D01*
X737Y120D01*
X720Y118D01*
X704Y111D01*
X690Y101D01*
X680Y87D01*
X673Y71D01*
X671Y54D01*
X673Y38D01*
X586Y-49D01*
X579Y-60D01*
X576Y-73D01*
Y-464D01*
X563Y-474D01*
X553Y-488D01*
X551Y-493D01*
X549Y-494D01*
X546Y-495D01*
X536Y-487D01*
Y-483D01*
X542Y-478D01*
X552Y-465D01*
X559Y-449D01*
X561Y-432D01*
X559Y-415D01*
X552Y-399D01*
X542Y-385D01*
X528Y-375D01*
X512Y-368D01*
X495Y-366D01*
X479Y-368D01*
X440Y-329D01*
Y312D01*
X453Y322D01*
X463Y336D01*
X470Y351D01*
X472Y368D01*
X470Y385D01*
X463Y401D01*
X453Y415D01*
X439Y425D01*
X423Y432D01*
X406Y434D01*
X389Y432D01*
X374Y425D01*
X360Y415D01*
X350Y401D01*
X343Y385D01*
X341Y368D01*
X343Y351D01*
X350Y336D01*
X360Y322D01*
X373Y312D01*
Y-131D01*
X361Y-136D01*
X304Y-78D01*
X293Y-71D01*
X280Y-68D01*
X107D01*
X97Y-55D01*
X84Y-45D01*
X70Y-39D01*
X83Y-32D01*
X83D01*
D01*
D01*
D01*
X83Y-32D01*
X94Y-25D01*
X98Y-20D01*
X106Y-21D01*
X120Y-31D01*
X135Y-38D01*
X152Y-40D01*
X169Y-38D01*
X185Y-31D01*
X199Y-21D01*
X209Y-7D01*
X216Y8D01*
X218Y25D01*
X216Y42D01*
X209Y58D01*
X199Y72D01*
X185Y82D01*
X169Y89D01*
X152Y91D01*
X135Y89D01*
X120Y82D01*
X114Y78D01*
X103Y83D01*
X101Y93D01*
X95Y109D01*
X84Y123D01*
X71Y133D01*
X55Y140D01*
X38Y142D01*
X21Y140D01*
X5Y133D01*
X-0Y129D01*
X-11Y135D01*
X-11Y140D01*
X-13Y157D01*
X-19Y172D01*
X-30Y186D01*
X-43Y196D01*
X-59Y203D01*
X-76Y205D01*
X-93Y203D01*
X-109Y196D01*
X-123Y186D01*
X-133Y173D01*
X-419D01*
X-432Y171D01*
X-443Y163D01*
X-1144Y-538D01*
X-1359D01*
X-1372Y-541D01*
X-1380Y-546D01*
X-1380Y-546D01*
X-1397Y-544D01*
X-1414Y-546D01*
X-1430Y-553D01*
X-1443Y-563D01*
X-1454Y-577D01*
X-1460Y-593D01*
X-1463Y-610D01*
X-1460Y-627D01*
X-1454Y-642D01*
X-1443Y-656D01*
X-1430Y-666D01*
X-1429Y-667D01*
Y-679D01*
X-1430Y-680D01*
X-1443Y-690D01*
X-1454Y-704D01*
X-1460Y-720D01*
X-1462Y-731D01*
X-1468Y-733D01*
X-1478Y-725D01*
Y-555D01*
X-1478Y-554D01*
X-1467Y-541D01*
X-1461Y-525D01*
X-1458Y-508D01*
X-1461Y-491D01*
X-1467Y-475D01*
X-1478Y-462D01*
X-1478Y-461D01*
Y286D01*
X-996Y768D01*
X-986Y783D01*
X-983Y800D01*
X-983D01*
X-983Y800D01*
Y1274D01*
X-982Y1274D01*
X-972Y1288D01*
X-965Y1304D01*
X-963Y1321D01*
X-965Y1338D01*
X-972Y1354D01*
X-982Y1367D01*
X-996Y1378D01*
X-997Y1378D01*
Y1391D01*
X-996Y1391D01*
X-982Y1401D01*
X-972Y1415D01*
X-965Y1431D01*
X-963Y1448D01*
X-965Y1465D01*
X-972Y1481D01*
X-982Y1494D01*
X-996Y1505D01*
X-1012Y1511D01*
X-1029Y1513D01*
D02*
G37*
G36*
X2004Y1424D02*
X1974Y1420D01*
X1946Y1408D01*
X1922Y1390D01*
X1904Y1366D01*
X1892Y1338D01*
X1888Y1308D01*
X1892Y1278D01*
X1904Y1250D01*
X1922Y1226D01*
X1946Y1208D01*
X1974Y1196D01*
X2004Y1192D01*
X2034Y1196D01*
X2062Y1208D01*
X2086Y1226D01*
X2104Y1250D01*
X2116Y1278D01*
X2120Y1308D01*
X2116Y1338D01*
X2104Y1366D01*
X2086Y1390D01*
X2062Y1408D01*
X2034Y1420D01*
X2004Y1424D01*
D02*
G37*
G36*
X670Y2212D02*
X640Y2208D01*
X612Y2196D01*
X588Y2178D01*
X570Y2154D01*
X558Y2126D01*
X554Y2096D01*
X558Y2066D01*
X570Y2038D01*
X588Y2014D01*
X612Y1996D01*
X640Y1984D01*
X670Y1980D01*
X700Y1984D01*
X728Y1996D01*
X752Y2014D01*
X770Y2038D01*
X782Y2066D01*
X786Y2096D01*
X782Y2126D01*
X770Y2154D01*
X752Y2178D01*
X728Y2196D01*
X700Y2208D01*
X670Y2212D01*
D02*
G37*
G36*
X2004Y916D02*
X1974Y912D01*
X1946Y900D01*
X1922Y882D01*
X1904Y858D01*
X1892Y830D01*
X1888Y800D01*
X1892Y770D01*
X1904Y742D01*
X1922Y718D01*
X1946Y700D01*
X1974Y688D01*
X2004Y684D01*
X2034Y688D01*
X2062Y700D01*
X2086Y718D01*
X2104Y742D01*
X2116Y770D01*
X2120Y800D01*
X2116Y830D01*
X2104Y858D01*
X2086Y882D01*
X2062Y900D01*
X2034Y912D01*
X2004Y916D01*
D02*
G37*
G36*
X1865Y915D02*
X1635D01*
Y685D01*
X1865D01*
Y915D01*
D02*
G37*
G36*
X2004Y1170D02*
X1974Y1166D01*
X1946Y1154D01*
X1922Y1136D01*
X1904Y1112D01*
X1892Y1084D01*
X1888Y1054D01*
X1892Y1024D01*
X1904Y996D01*
X1922Y972D01*
X1946Y954D01*
X1974Y942D01*
X2004Y938D01*
X2034Y942D01*
X2062Y954D01*
X2086Y972D01*
X2104Y996D01*
X2116Y1024D01*
X2120Y1054D01*
X2116Y1084D01*
X2104Y1112D01*
X2086Y1136D01*
X2062Y1154D01*
X2034Y1166D01*
X2004Y1170D01*
D02*
G37*
G36*
X416Y2212D02*
X391Y2209D01*
X368Y2199D01*
X348Y2184D01*
X333Y2164D01*
X323Y2141D01*
X320Y2116D01*
Y2076D01*
X323Y2051D01*
X333Y2028D01*
X348Y2008D01*
X368Y1993D01*
X391Y1983D01*
X416Y1980D01*
X441Y1983D01*
X464Y1993D01*
X484Y2008D01*
X499Y2028D01*
X509Y2051D01*
X512Y2076D01*
Y2116D01*
X509Y2141D01*
X499Y2164D01*
X484Y2184D01*
X464Y2199D01*
X441Y2209D01*
X416Y2212D01*
D02*
G37*
G36*
X162Y2466D02*
X137Y2463D01*
X114Y2453D01*
X94Y2438D01*
X79Y2418D01*
X69Y2395D01*
X66Y2370D01*
Y2330D01*
X69Y2305D01*
X70Y2305D01*
X15Y2250D01*
X7Y2239D01*
X5Y2226D01*
Y2163D01*
X-8Y2161D01*
X-9Y2164D01*
X-24Y2184D01*
X-44Y2199D01*
X-67Y2209D01*
X-92Y2212D01*
X-117Y2209D01*
X-140Y2199D01*
X-160Y2184D01*
X-175Y2164D01*
X-183Y2145D01*
X-195Y2148D01*
Y2200D01*
X-144Y2250D01*
X-140Y2247D01*
X-117Y2237D01*
X-92Y2234D01*
X-67Y2237D01*
X-44Y2247D01*
X-24Y2262D01*
X-9Y2282D01*
X1Y2305D01*
X4Y2330D01*
Y2370D01*
X1Y2395D01*
X-9Y2418D01*
X-24Y2438D01*
X-44Y2453D01*
X-67Y2463D01*
X-92Y2466D01*
X-117Y2463D01*
X-140Y2453D01*
X-160Y2438D01*
X-175Y2418D01*
X-185Y2395D01*
X-188Y2370D01*
Y2330D01*
X-185Y2305D01*
X-184Y2305D01*
X-252Y2237D01*
X-259Y2226D01*
X-262Y2213D01*
Y2182D01*
X-274Y2178D01*
X-278Y2184D01*
X-298Y2199D01*
X-321Y2209D01*
X-346Y2212D01*
X-371Y2209D01*
X-394Y2199D01*
X-414Y2184D01*
X-425Y2170D01*
X-437Y2174D01*
Y2212D01*
X-398Y2250D01*
X-394Y2247D01*
X-371Y2237D01*
X-346Y2234D01*
X-321Y2237D01*
X-298Y2247D01*
X-278Y2262D01*
X-263Y2282D01*
X-253Y2305D01*
X-250Y2330D01*
Y2370D01*
X-253Y2395D01*
X-263Y2418D01*
X-278Y2438D01*
X-298Y2453D01*
X-321Y2463D01*
X-346Y2466D01*
X-371Y2463D01*
X-394Y2453D01*
X-414Y2438D01*
X-429Y2418D01*
X-439Y2395D01*
X-442Y2370D01*
Y2330D01*
X-439Y2305D01*
X-438Y2305D01*
X-493Y2250D01*
X-495Y2250D01*
X-505Y2257D01*
Y2465D01*
X-695D01*
Y2235D01*
X-548D01*
X-503Y2226D01*
Y2163D01*
X-516Y2161D01*
X-517Y2164D01*
X-532Y2184D01*
X-552Y2199D01*
X-575Y2209D01*
X-600Y2212D01*
X-625Y2209D01*
X-648Y2199D01*
X-668Y2184D01*
X-683Y2164D01*
X-693Y2141D01*
X-696Y2116D01*
Y2076D01*
X-693Y2051D01*
X-683Y2028D01*
X-668Y2008D01*
X-648Y1993D01*
X-633Y1987D01*
Y1928D01*
X-709Y1852D01*
X-717Y1842D01*
X-719Y1829D01*
Y1435D01*
X-717Y1422D01*
X-709Y1412D01*
X-630Y1332D01*
Y1107D01*
X-1382Y354D01*
X-1390Y344D01*
X-1392Y331D01*
Y171D01*
X-1405Y161D01*
X-1416Y147D01*
X-1422Y131D01*
X-1424Y114D01*
X-1422Y97D01*
X-1416Y82D01*
X-1405Y68D01*
X-1392Y58D01*
X-1376Y51D01*
X-1359Y49D01*
X-1342Y51D01*
X-1326Y58D01*
X-1313Y68D01*
X-1302Y82D01*
X-1296Y97D01*
X-1293Y114D01*
X-1296Y131D01*
X-1302Y147D01*
X-1313Y161D01*
X-1326Y171D01*
Y317D01*
X-1290Y353D01*
X-1278Y348D01*
Y323D01*
X-1291Y313D01*
X-1301Y299D01*
X-1308Y284D01*
X-1310Y267D01*
X-1308Y250D01*
X-1301Y234D01*
X-1291Y220D01*
X-1277Y210D01*
X-1262Y203D01*
X-1245Y201D01*
X-1228Y203D01*
X-1212Y210D01*
X-1198Y220D01*
X-1188Y234D01*
X-1181Y250D01*
X-1179Y267D01*
X-1181Y284D01*
X-1188Y299D01*
X-1198Y313D01*
X-1211Y323D01*
Y367D01*
X-883Y696D01*
X-871Y691D01*
Y203D01*
X-869Y190D01*
X-869Y190D01*
X-869Y190D01*
X-861Y179D01*
X-814Y132D01*
X-815Y127D01*
X-813Y110D01*
X-806Y94D01*
X-796Y81D01*
X-782Y70D01*
X-766Y64D01*
X-749Y61D01*
X-732Y64D01*
X-717Y70D01*
X-703Y81D01*
X-693Y94D01*
X-686Y110D01*
X-684Y127D01*
X-686Y144D01*
X-693Y160D01*
X-703Y173D01*
X-717Y184D01*
X-732Y190D01*
X-749Y193D01*
X-766Y190D01*
X-775Y187D01*
X-805Y217D01*
Y698D01*
X-767Y735D01*
X-757Y728D01*
X-762Y715D01*
X-764Y699D01*
X-762Y682D01*
X-755Y666D01*
X-745Y652D01*
X-734Y644D01*
X-736Y632D01*
X-744Y628D01*
X-758Y618D01*
X-768Y604D01*
X-775Y588D01*
X-777Y572D01*
X-775Y555D01*
X-768Y539D01*
X-758Y525D01*
X-744Y515D01*
X-728Y508D01*
X-711Y506D01*
X-694Y508D01*
X-678Y515D01*
X-665Y525D01*
X-655Y538D01*
X20D01*
X30Y525D01*
X43Y515D01*
X59Y508D01*
X76Y506D01*
X93Y508D01*
X109Y515D01*
X123Y525D01*
X133Y539D01*
X140Y555D01*
X142Y572D01*
X140Y588D01*
X138Y591D01*
X145Y602D01*
X515D01*
X525Y589D01*
X539Y578D01*
X555Y572D01*
X572Y569D01*
X588Y572D01*
X604Y578D01*
X618Y589D01*
X628Y602D01*
X629Y603D01*
X641D01*
X642Y602D01*
X652Y589D01*
X666Y578D01*
X682Y572D01*
X699Y569D01*
X715Y572D01*
X731Y578D01*
X745Y589D01*
X755Y602D01*
X762Y618D01*
X764Y635D01*
X762Y651D01*
X767Y654D01*
X774Y657D01*
X775Y656D01*
X791Y653D01*
X806Y656D01*
X819Y665D01*
X832D01*
X845Y656D01*
X860Y653D01*
X876Y656D01*
X889Y665D01*
X898Y678D01*
X901Y694D01*
Y754D01*
X898Y770D01*
X889Y783D01*
X876Y792D01*
X860Y795D01*
X845Y792D01*
X832Y783D01*
X819D01*
X806Y792D01*
X791Y795D01*
X775Y792D01*
X762Y783D01*
X753Y770D01*
X750Y754D01*
Y694D01*
X750Y692D01*
X739Y686D01*
X731Y692D01*
X715Y698D01*
X699Y701D01*
X685Y699D01*
X569Y815D01*
Y1219D01*
X566Y1233D01*
X559Y1244D01*
X535Y1268D01*
X535Y1270D01*
X533Y1287D01*
X527Y1303D01*
X516Y1316D01*
X503Y1327D01*
X487Y1333D01*
X470Y1336D01*
X453Y1333D01*
X437Y1327D01*
X424Y1316D01*
X413Y1303D01*
X407Y1287D01*
X404Y1270D01*
X407Y1253D01*
X413Y1237D01*
X424Y1224D01*
X437Y1213D01*
X453Y1207D01*
X470Y1204D01*
X487Y1207D01*
X487Y1207D01*
X498Y1200D01*
Y800D01*
Y800D01*
X498Y800D01*
X498Y800D01*
X500Y786D01*
X508Y775D01*
X571Y712D01*
X567Y700D01*
X555Y698D01*
X539Y692D01*
X525Y681D01*
X515Y668D01*
X154D01*
X138Y684D01*
X127Y691D01*
X114Y694D01*
X-54D01*
X-62Y703D01*
X-61Y711D01*
X-64Y728D01*
X-70Y744D01*
X-81Y758D01*
X-94Y768D01*
X-110Y775D01*
X-127Y777D01*
X-144Y775D01*
X-145Y774D01*
X-156Y781D01*
Y994D01*
X-144Y998D01*
X-74Y929D01*
X-74Y929D01*
X-74Y929D01*
X-64Y922D01*
X-51Y919D01*
X109D01*
X119Y906D01*
X132Y896D01*
X148Y889D01*
X165Y887D01*
X182Y889D01*
X198Y896D01*
X211Y906D01*
X222Y920D01*
X228Y936D01*
X231Y952D01*
X228Y969D01*
X222Y985D01*
X211Y999D01*
X198Y1009D01*
X182Y1016D01*
X165Y1018D01*
X148Y1016D01*
X132Y1009D01*
X119Y999D01*
X109Y986D01*
X-37D01*
X-290Y1238D01*
Y1695D01*
X-113Y1872D01*
X13D01*
X25Y1874D01*
X36Y1881D01*
Y1881D01*
X36Y1881D01*
X36Y1881D01*
X36D01*
X138Y1983D01*
X162Y1980D01*
X187Y1983D01*
X210Y1993D01*
X230Y2008D01*
X245Y2028D01*
X255Y2051D01*
X258Y2076D01*
Y2116D01*
X255Y2141D01*
X245Y2164D01*
X230Y2184D01*
X210Y2199D01*
X187Y2209D01*
X162Y2212D01*
X137Y2209D01*
X114Y2199D01*
X94Y2184D01*
X83Y2170D01*
X71Y2174D01*
Y2212D01*
X110Y2250D01*
X114Y2247D01*
X137Y2237D01*
X162Y2234D01*
X187Y2237D01*
X210Y2247D01*
X230Y2262D01*
X245Y2282D01*
X255Y2305D01*
X258Y2330D01*
Y2370D01*
X255Y2395D01*
X245Y2418D01*
X230Y2438D01*
X210Y2453D01*
X187Y2463D01*
X162Y2466D01*
D02*
G37*
G36*
X403Y2470D02*
X390Y2468D01*
X365Y2458D01*
X344Y2442D01*
X328Y2421D01*
X318Y2396D01*
X315Y2370D01*
Y2363D01*
X403D01*
Y2470D01*
D02*
G37*
G36*
X429D02*
Y2363D01*
X517D01*
Y2370D01*
X514Y2396D01*
X504Y2421D01*
X488Y2442D01*
X467Y2458D01*
X442Y2468D01*
X429Y2470D01*
D02*
G37*
G36*
X403Y2337D02*
X315D01*
Y2330D01*
X318Y2304D01*
X328Y2279D01*
X344Y2258D01*
X365Y2242D01*
X390Y2232D01*
X403Y2230D01*
Y2337D01*
D02*
G37*
G36*
X517D02*
X429D01*
Y2230D01*
X442Y2232D01*
X467Y2242D01*
X488Y2258D01*
X504Y2279D01*
X514Y2304D01*
X517Y2330D01*
Y2337D01*
D02*
G37*
G36*
X670Y2466D02*
X640Y2462D01*
X612Y2450D01*
X588Y2432D01*
X570Y2408D01*
X558Y2380D01*
X554Y2350D01*
X558Y2320D01*
X570Y2292D01*
X588Y2268D01*
X612Y2250D01*
X640Y2238D01*
X670Y2234D01*
X700Y2238D01*
X728Y2250D01*
X752Y2268D01*
X770Y2292D01*
X782Y2320D01*
X786Y2350D01*
X782Y2380D01*
X770Y2408D01*
X752Y2432D01*
X728Y2450D01*
X700Y2462D01*
X670Y2466D01*
D02*
G37*
G36*
X-1740Y341D02*
Y254D01*
X-1653D01*
X-1655Y268D01*
X-1665Y292D01*
X-1681Y313D01*
X-1702Y329D01*
X-1726Y339D01*
X-1740Y341D01*
D02*
G37*
G36*
X-2235Y610D02*
X-2324D01*
Y602D01*
X-2320Y576D01*
X-2310Y552D01*
X-2294Y531D01*
X-2273Y515D01*
X-2249Y504D01*
X-2235Y503D01*
Y610D01*
D02*
G37*
G36*
X-2121D02*
X-2210D01*
Y503D01*
X-2196Y504D01*
X-2172Y515D01*
X-2151Y531D01*
X-2135Y552D01*
X-2125Y576D01*
X-2121Y602D01*
Y610D01*
D02*
G37*
G36*
X-1765Y341D02*
X-1779Y339D01*
X-1803Y329D01*
X-1824Y313D01*
X-1840Y292D01*
X-1850Y268D01*
X-1852Y254D01*
X-1765D01*
Y341D01*
D02*
G37*
G36*
X-1753Y83D02*
X-1777Y80D01*
X-1801Y70D01*
X-1820Y55D01*
X-1836Y35D01*
X-1845Y12D01*
X-1848Y-13D01*
X-1845Y-38D01*
X-1836Y-61D01*
X-1820Y-80D01*
X-1801Y-96D01*
X-1777Y-105D01*
X-1753Y-109D01*
X-1728Y-105D01*
X-1705Y-96D01*
X-1685Y-80D01*
X-1670Y-61D01*
X-1660Y-38D01*
X-1657Y-13D01*
X-1660Y12D01*
X-1670Y35D01*
X-1685Y55D01*
X-1705Y70D01*
X-1728Y80D01*
X-1753Y83D01*
D02*
G37*
G36*
X-1765Y229D02*
X-1852D01*
X-1850Y215D01*
X-1840Y191D01*
X-1824Y170D01*
X-1803Y154D01*
X-1779Y143D01*
X-1765Y142D01*
Y229D01*
D02*
G37*
G36*
X-1653D02*
X-1740D01*
Y142D01*
X-1726Y143D01*
X-1702Y154D01*
X-1681Y170D01*
X-1665Y191D01*
X-1655Y215D01*
X-1653Y229D01*
D02*
G37*
G36*
X-1429Y906D02*
X-1619D01*
Y716D01*
X-1565D01*
X-1563Y704D01*
X-1575Y699D01*
X-1596Y683D01*
X-1612Y662D01*
X-1622Y637D01*
X-1624Y624D01*
X-1424D01*
X-1426Y637D01*
X-1436Y662D01*
X-1452Y683D01*
X-1473Y699D01*
X-1485Y704D01*
X-1483Y716D01*
X-1429D01*
Y906D01*
D02*
G37*
G36*
X-2235Y742D02*
X-2249Y740D01*
X-2273Y730D01*
X-2294Y714D01*
X-2310Y693D01*
X-2320Y669D01*
X-2324Y642D01*
Y635D01*
X-2235D01*
Y742D01*
D02*
G37*
G36*
X-2210D02*
Y635D01*
X-2121D01*
Y642D01*
X-2125Y669D01*
X-2135Y693D01*
X-2151Y714D01*
X-2172Y730D01*
X-2196Y740D01*
X-2210Y742D01*
D02*
G37*
G36*
X-1537Y599D02*
X-1624D01*
X-1622Y585D01*
X-1612Y561D01*
X-1596Y540D01*
X-1575Y524D01*
X-1550Y513D01*
X-1537Y512D01*
Y599D01*
D02*
G37*
G36*
X-1874Y737D02*
X-2064D01*
Y507D01*
X-1874D01*
Y737D01*
D02*
G37*
G36*
X-1424Y599D02*
X-1511D01*
Y512D01*
X-1498Y513D01*
X-1473Y524D01*
X-1452Y540D01*
X-1436Y561D01*
X-1426Y585D01*
X-1424Y599D01*
D02*
G37*
%LPD*%
G36*
X-300Y990D02*
Y768D01*
X-313Y758D01*
X-323Y744D01*
X-330Y728D01*
X-332Y711D01*
X-330Y694D01*
X-324Y679D01*
X-331Y668D01*
X-621D01*
X-635Y682D01*
X-633Y699D01*
X-635Y715D01*
X-642Y731D01*
X-652Y745D01*
X-666Y755D01*
X-682Y762D01*
X-699Y764D01*
X-715Y762D01*
X-728Y757D01*
X-735Y767D01*
X-513Y989D01*
X-503Y982D01*
X-508Y969D01*
X-510Y952D01*
X-508Y936D01*
X-501Y920D01*
X-491Y906D01*
X-477Y896D01*
X-461Y889D01*
X-445Y887D01*
X-428Y889D01*
X-412Y896D01*
X-398Y906D01*
X-388Y920D01*
X-381Y936D01*
X-379Y952D01*
X-381Y969D01*
X-388Y985D01*
X-398Y999D01*
X-411Y1009D01*
Y1035D01*
X-414Y1048D01*
X-421Y1058D01*
X-427Y1065D01*
Y1101D01*
X-416Y1106D01*
X-300Y990D01*
D02*
G37*
D10*
X114Y660D02*
X140Y635D01*
X572D01*
X495Y-546D02*
X548Y-598D01*
X697D01*
X464Y-693D02*
X743D01*
X305Y-458D02*
X346Y-500D01*
Y-576D02*
Y-500D01*
Y-576D02*
X464Y-693D01*
X392Y-557D02*
Y-481D01*
Y-557D02*
X483Y-648D01*
X724D01*
X305Y-458D02*
Y-190D01*
X275Y-572D02*
X465Y-762D01*
X267Y-572D02*
X275D01*
X158Y-704D02*
X481Y-1027D01*
X-38Y-749D02*
X139D01*
X495Y-1105D01*
X481Y-1027D02*
X1099D01*
X495Y-1105D02*
X876D01*
X697Y-598D02*
X889Y-406D01*
Y-241D01*
X743Y-693D02*
X1111Y-325D01*
X1429D01*
X724Y-648D02*
X1092Y-279D01*
X1410D01*
X44Y-704D02*
X158D01*
X356Y-445D02*
X392Y-481D01*
X465Y-762D02*
X1067D01*
X1397Y-1435D02*
Y-1325D01*
X1099Y-1027D02*
X1397Y-1325D01*
X0Y-660D02*
X44Y-704D01*
X-127Y-660D02*
X-38Y-749D01*
X-699Y699D02*
X-635Y635D01*
X-300D01*
X-299Y634D01*
X-95D01*
X-68Y660D01*
X114D01*
X-1422Y-737D02*
X-1397D01*
X-1422D02*
X-1373Y-687D01*
X-1334D01*
X-1264Y-617D01*
X-1359Y-572D02*
X-1130D01*
X-1397Y-610D02*
X-1359Y-572D01*
X-323Y1225D02*
Y1709D01*
Y1225D02*
X-51Y952D01*
X-368Y1181D02*
Y1740D01*
X-414Y1151D02*
Y1774D01*
X-461Y1051D02*
Y1800D01*
X-506Y1043D02*
Y1920D01*
X-838Y712D02*
X-506Y1043D01*
X-1245Y381D02*
X-551Y1074D01*
X-461Y1800D02*
X-229Y2032D01*
X-461Y1051D02*
X-445Y1035D01*
X-506Y1920D02*
X-346Y2080D01*
X-551Y1963D02*
X-470Y2045D01*
X-1359Y331D02*
X-597Y1093D01*
X-414Y1774D02*
X-92Y2096D01*
X-414Y1151D02*
X-267Y1004D01*
X-368Y1181D02*
X-189Y1002D01*
X-51Y952D02*
X165D01*
X-346Y2080D02*
Y2096D01*
X38Y2226D02*
X162Y2350D01*
X-229Y2213D02*
X-92Y2350D01*
X-229Y2032D02*
Y2213D01*
X-445Y952D02*
Y1035D01*
X-838Y203D02*
Y712D01*
Y203D02*
X-775Y140D01*
X-737D01*
X-189Y761D02*
Y1002D01*
Y761D02*
X-140Y711D01*
X-127D01*
X-267D02*
Y1004D01*
X-470Y2226D02*
X-346Y2350D01*
X-470Y2045D02*
Y2226D01*
X-1359Y114D02*
Y331D01*
X-1245Y267D02*
Y381D01*
X-711Y572D02*
X76D01*
X-1130Y-572D02*
X-419Y140D01*
X-1074Y-708D02*
X-368Y-2D01*
X-1130Y-813D02*
Y-724D01*
X-1114Y-708D02*
X-1074D01*
X-1130Y-724D02*
X-1114Y-708D01*
X-1093Y-662D02*
X-387Y44D01*
X-1257Y-737D02*
Y-699D01*
X-1221Y-662D01*
X-1093D01*
X-1264Y-617D02*
X-1111D01*
X-400Y94D01*
X-368Y-2D02*
X-306D01*
X-242Y-65D01*
X-171D01*
X-108Y-1D01*
X70D01*
X97Y25D01*
X152D01*
X-387Y44D02*
X-287D01*
X-256Y13D01*
X-203D01*
X-400Y94D02*
X-152D01*
X-419Y140D02*
X-76D01*
X-152Y94D02*
X-120Y62D01*
X24D01*
X38Y76D01*
X261Y-147D02*
X305Y-190D01*
X356Y-445D02*
Y-177D01*
X406Y-343D02*
Y368D01*
Y-343D02*
X495Y-432D01*
X280Y-102D02*
X356Y-177D01*
X51Y-102D02*
X280D01*
X115Y-147D02*
X261D01*
X-62Y-179D02*
X83D01*
X115Y-147D01*
X-63Y-178D02*
X-62Y-179D01*
X-978Y-1054D02*
X-724D01*
X-559Y-889D01*
Y-775D01*
X-927Y-927D02*
X-800D01*
X-673Y-800D01*
Y-686D01*
X1638Y1054D02*
X1750D01*
X1549Y965D02*
X1638Y1054D01*
X1549Y-204D02*
Y965D01*
X1429Y-325D02*
X1549Y-204D01*
X1499Y-190D02*
Y1194D01*
X1410Y-279D02*
X1499Y-190D01*
X1750Y1308D02*
X1750Y1308D01*
X1613Y1308D02*
X1750D01*
X1499Y1194D02*
X1613Y1308D01*
X-406Y-914D02*
X-51Y-1270D01*
X-406Y-914D02*
Y-381D01*
X610Y-521D02*
Y-73D01*
X737Y54D01*
X-559Y-889D02*
X-521Y-927D01*
Y-1118D02*
Y-927D01*
X-600Y1915D02*
Y2096D01*
X-686Y1829D02*
X-600Y1915D01*
X-686Y1435D02*
Y1829D01*
Y1435D02*
X-597Y1346D01*
Y1093D02*
Y1346D01*
X-551Y1811D02*
Y1963D01*
X-610Y1753D02*
X-551Y1811D01*
X-610Y1544D02*
X-551Y1486D01*
Y1074D02*
Y1486D01*
X-610Y1544D02*
Y1753D01*
X-368Y1740D02*
X-152Y1956D01*
X-323Y1709D02*
X-127Y1905D01*
X38Y2032D02*
Y2226D01*
X-38Y1956D02*
X38Y2032D01*
X-152Y1956D02*
X-38D01*
X162Y2054D02*
Y2096D01*
X13Y1905D02*
X162Y2054D01*
X-127Y1905D02*
X13D01*
D11*
X533Y800D02*
Y1219D01*
Y800D02*
X699Y635D01*
X508Y1245D02*
X533Y1219D01*
X-432Y-1626D02*
Y-1486D01*
Y-1626D02*
X-406Y-1651D01*
X749D01*
X927Y-914D02*
X1753D01*
D12*
X-70Y-1111D02*
X-63Y-1118D01*
Y-1105D02*
Y-952D01*
X584Y-914D02*
X927D01*
X279Y-699D02*
X495Y-914D01*
X279Y-699D02*
Y-686D01*
X495Y-914D02*
X584D01*
X-190Y-826D02*
X-63Y-952D01*
D13*
X-673Y-483D02*
X-546D01*
X-1040Y-850D02*
X-673Y-483D01*
X-1117Y-927D02*
X-1040Y-850D01*
X-1181Y-927D02*
X-1117D01*
X-1040Y-850D02*
Y-850D01*
X-1270Y-838D02*
X-1181Y-927D01*
X-1435Y-838D02*
X-1270D01*
X-1524Y-749D02*
X-1435Y-838D01*
X-1524Y-749D02*
Y305D01*
X-1029Y800D01*
Y1321D01*
D14*
X-1372Y-1003D02*
X-1346Y-1029D01*
X-1270D01*
X-1029Y-1270D01*
Y-1346D02*
Y-1270D01*
Y-1346D02*
X-889Y-1486D01*
X-432D01*
D15*
X791Y724D02*
D03*
X860D02*
D03*
D16*
X-670Y-2096D02*
D03*
X-416D02*
D03*
X-162D02*
D03*
X92D02*
D03*
X346D02*
D03*
X600D02*
D03*
X-670Y-2350D02*
D03*
X-416D02*
D03*
X-162D02*
D03*
X92D02*
D03*
X346D02*
D03*
D17*
X600D02*
D03*
D18*
X670Y2096D02*
D03*
Y2350D02*
D03*
X-2134Y-1003D02*
D03*
X-1880D02*
D03*
X-1626D02*
D03*
X-1372D02*
D03*
X-2134Y-1257D02*
D03*
X-1880D02*
D03*
X-1626D02*
D03*
X2004Y1308D02*
D03*
Y1054D02*
D03*
Y800D02*
D03*
X1750Y1308D02*
D03*
Y1054D02*
D03*
D19*
X416Y2096D02*
D03*
X162D02*
D03*
X-92D02*
D03*
X-346D02*
D03*
X-600D02*
D03*
X416Y2350D02*
D03*
X162D02*
D03*
X-92D02*
D03*
X-346D02*
D03*
X-2223Y622D02*
D03*
D20*
X-600Y2350D02*
D03*
X-1968Y622D02*
D03*
D21*
X-1753Y241D02*
D03*
Y-13D02*
D03*
X-1524Y611D02*
D03*
D22*
X-1753Y-267D02*
D03*
X-1524Y811D02*
D03*
D23*
X-1372Y-1257D02*
D03*
D24*
X1750Y800D02*
D03*
D25*
X-2300Y0D02*
D03*
X2300D02*
D03*
D26*
X-63Y-1105D02*
D03*
X-851Y1943D02*
D03*
X-1067Y1778D02*
D03*
X470Y1270D02*
D03*
X699Y635D02*
D03*
X584Y-914D02*
D03*
X495Y-546D02*
D03*
X279Y-686D02*
D03*
X267Y-572D02*
D03*
X216Y-1016D02*
D03*
X-190Y-826D02*
D03*
X89Y-572D02*
D03*
X1397Y-1435D02*
D03*
X0Y-660D02*
D03*
X-127D02*
D03*
X-699Y699D02*
D03*
X-1029Y1321D02*
D03*
Y1448D02*
D03*
X-1397Y-737D02*
D03*
Y-610D02*
D03*
X-546Y-483D02*
D03*
X-1257Y787D02*
D03*
X165Y952D02*
D03*
X-445D02*
D03*
X-1359Y114D02*
D03*
X-127Y711D02*
D03*
X-267D02*
D03*
X305Y724D02*
D03*
X572Y635D02*
D03*
X-711Y572D02*
D03*
X76D02*
D03*
X-1130Y-381D02*
D03*
Y-813D02*
D03*
X-1257Y-737D02*
D03*
X152Y25D02*
D03*
X-203Y13D02*
D03*
X38Y76D02*
D03*
X-76Y140D02*
D03*
X927Y-914D02*
D03*
X876Y-1105D02*
D03*
X-63Y-178D02*
D03*
X51Y-102D02*
D03*
X-978Y-927D02*
D03*
Y-1054D02*
D03*
X-559Y-775D02*
D03*
X-673Y-686D02*
D03*
X-521Y-1295D02*
D03*
X-432Y-1486D02*
D03*
X495Y-432D02*
D03*
X406Y368D02*
D03*
X1067Y-762D02*
D03*
Y-584D02*
D03*
X-279Y-749D02*
D03*
X-51Y-1270D02*
D03*
X-406Y-381D02*
D03*
X1041Y394D02*
D03*
X737Y54D02*
D03*
X610Y-521D02*
D03*
X889Y-241D02*
D03*
Y-63D02*
D03*
X-749Y127D02*
D03*
X-1245Y267D02*
D03*
X749Y-1651D02*
D03*
X-521Y-1118D02*
D03*
X1676Y-1994D02*
D03*
X-241Y229D02*
D03*
X1003Y1943D02*
D03*
X-597Y1727D02*
D03*
X-838Y1346D02*
D03*
X254Y1791D02*
D03*
X406Y1143D02*
D03*
X2083Y-419D02*
D03*
X-775Y1029D02*
D03*
X1753Y-914D02*
D03*
X-1524Y-508D02*
D03*
M02*
