%FSLAX42Y42*%
%MOMM*%
G71*
G01*
G75*
G04 Layer_Color=16711935*
%ADD10C,0.25*%
%ADD11C,0.30*%
%ADD12C,0.40*%
%ADD13C,0.50*%
%ADD14C,0.70*%
%ADD15O,0.40X1.00*%
%ADD16O,1.90X1.50*%
%ADD17R,1.90X1.50*%
%ADD18C,1.90*%
%ADD19O,1.50X1.90*%
%ADD20R,1.50X1.90*%
%ADD21C,1.50*%
%ADD22R,1.50X1.50*%
%ADD23R,1.90X1.90*%
%ADD24R,1.90X1.90*%
%ADD25C,4.50*%
%ADD26C,0.90*%
%ADD27R,2.00X5.50*%
%ADD28R,0.60X0.75*%
%ADD29R,0.75X0.60*%
%ADD30R,1.75X1.05*%
%ADD31R,1.75X1.05*%
%ADD32R,1.75X3.40*%
%ADD33O,0.25X1.55*%
%ADD34O,1.55X0.25*%
%ADD35R,1.10X1.00*%
%ADD36R,1.00X1.10*%
%ADD37R,1.50X1.30*%
%ADD38C,1.00*%
%ADD39C,1.30*%
%ADD40C,1.00*%
%ADD41O,0.60X1.20*%
%ADD42O,2.10X1.70*%
%ADD43R,2.10X1.70*%
%ADD44C,2.10*%
%ADD45O,1.70X2.10*%
%ADD46R,1.70X2.10*%
%ADD47C,1.70*%
%ADD48R,1.70X1.70*%
%ADD49R,2.10X2.10*%
%ADD50R,2.10X2.10*%
%ADD51C,4.70*%
%ADD52C,1.10*%
%ADD53R,2.20X5.70*%
%ADD54R,0.80X0.95*%
%ADD55R,0.95X0.80*%
%ADD56R,1.95X1.25*%
%ADD57R,1.95X1.25*%
%ADD58R,1.95X3.60*%
%ADD59O,0.45X1.75*%
%ADD60O,1.75X0.45*%
%ADD61R,1.30X1.20*%
%ADD62R,1.20X1.30*%
%ADD63R,1.70X1.50*%
%ADD64C,3.00*%
D41*
X791Y724D02*
D03*
X860D02*
D03*
D42*
X-670Y-2096D02*
D03*
X-416D02*
D03*
X-162D02*
D03*
X92D02*
D03*
X346D02*
D03*
X600D02*
D03*
X-670Y-2350D02*
D03*
X-416D02*
D03*
X-162D02*
D03*
X92D02*
D03*
X346D02*
D03*
D43*
X600D02*
D03*
D44*
X670Y2096D02*
D03*
Y2350D02*
D03*
X-2134Y-1003D02*
D03*
X-1880D02*
D03*
X-1626D02*
D03*
X-1372D02*
D03*
X-2134Y-1257D02*
D03*
X-1880D02*
D03*
X-1626D02*
D03*
X2004Y1308D02*
D03*
Y1054D02*
D03*
Y800D02*
D03*
X1750Y1308D02*
D03*
Y1054D02*
D03*
D45*
X416Y2096D02*
D03*
X162D02*
D03*
X-92D02*
D03*
X-346D02*
D03*
X-600D02*
D03*
X416Y2350D02*
D03*
X162D02*
D03*
X-92D02*
D03*
X-346D02*
D03*
X-2223Y622D02*
D03*
D46*
X-600Y2350D02*
D03*
X-1968Y622D02*
D03*
D47*
X-1753Y241D02*
D03*
Y-13D02*
D03*
X-1524Y611D02*
D03*
D48*
X-1753Y-267D02*
D03*
X-1524Y811D02*
D03*
D49*
X-1372Y-1257D02*
D03*
D50*
X1750Y800D02*
D03*
D51*
X-2300Y0D02*
D03*
X2300D02*
D03*
D52*
X-63Y-1105D02*
D03*
X-851Y1943D02*
D03*
X-1067Y1778D02*
D03*
X470Y1270D02*
D03*
X699Y635D02*
D03*
X584Y-914D02*
D03*
X495Y-546D02*
D03*
X279Y-686D02*
D03*
X267Y-572D02*
D03*
X216Y-1016D02*
D03*
X-190Y-826D02*
D03*
X89Y-572D02*
D03*
X1397Y-1435D02*
D03*
X0Y-660D02*
D03*
X-127D02*
D03*
X-699Y699D02*
D03*
X-1029Y1321D02*
D03*
Y1448D02*
D03*
X-1397Y-737D02*
D03*
Y-610D02*
D03*
X-546Y-483D02*
D03*
X-1257Y787D02*
D03*
X165Y952D02*
D03*
X-445D02*
D03*
X-1359Y114D02*
D03*
X-127Y711D02*
D03*
X-267D02*
D03*
X305Y724D02*
D03*
X572Y635D02*
D03*
X-711Y572D02*
D03*
X76D02*
D03*
X-1130Y-381D02*
D03*
Y-813D02*
D03*
X-1257Y-737D02*
D03*
X152Y25D02*
D03*
X-203Y13D02*
D03*
X38Y76D02*
D03*
X-76Y140D02*
D03*
X927Y-914D02*
D03*
X876Y-1105D02*
D03*
X-63Y-178D02*
D03*
X51Y-102D02*
D03*
X-978Y-927D02*
D03*
Y-1054D02*
D03*
X-559Y-775D02*
D03*
X-673Y-686D02*
D03*
X-521Y-1295D02*
D03*
X495Y-432D02*
D03*
X406Y368D02*
D03*
X1067Y-762D02*
D03*
Y-584D02*
D03*
X-279Y-749D02*
D03*
X-51Y-1270D02*
D03*
X-406Y-381D02*
D03*
X1041Y394D02*
D03*
X737Y54D02*
D03*
X610Y-521D02*
D03*
X889Y-241D02*
D03*
Y-63D02*
D03*
X-749Y127D02*
D03*
X-1245Y267D02*
D03*
X749Y-1651D02*
D03*
X-521Y-1118D02*
D03*
X1676Y-1994D02*
D03*
X-241Y229D02*
D03*
X1003Y1943D02*
D03*
X-597Y1727D02*
D03*
X-838Y1346D02*
D03*
X254Y1791D02*
D03*
X406Y1143D02*
D03*
X2083Y-419D02*
D03*
X-775Y1029D02*
D03*
X1753Y-914D02*
D03*
X-1524Y-508D02*
D03*
D53*
X1270Y1008D02*
D03*
Y58D02*
D03*
D54*
X-857Y-1102D02*
D03*
X-667D02*
D03*
X-762Y-1311D02*
D03*
X-768Y-1648D02*
D03*
X-578D02*
D03*
X-673Y-1858D02*
D03*
X-121Y1254D02*
D03*
X-311D02*
D03*
X-216Y1464D02*
D03*
X-1016Y-35D02*
D03*
X-1111Y-245D02*
D03*
X-921D02*
D03*
X-1016Y416D02*
D03*
X-921Y626D02*
D03*
X-1111D02*
D03*
X-572Y1464D02*
D03*
X-666Y1254D02*
D03*
X-476D02*
D03*
X-1314Y2023D02*
D03*
X-1124D02*
D03*
X-1219Y1813D02*
D03*
X1759Y-778D02*
D03*
X1569D02*
D03*
X1664Y-568D02*
D03*
D55*
X-187Y-1264D02*
D03*
Y-1454D02*
D03*
X-397Y-1359D02*
D03*
X327Y-1111D02*
D03*
Y-921D02*
D03*
X537Y-1016D02*
D03*
X1743Y-1645D02*
D03*
Y-1835D02*
D03*
X1533Y-1740D02*
D03*
X797Y1715D02*
D03*
X1007Y1619D02*
D03*
Y1809D02*
D03*
X740Y-578D02*
D03*
Y-768D02*
D03*
X530Y-673D02*
D03*
D56*
X-1207Y1614D02*
D03*
D57*
X-1207Y1384D02*
D03*
Y1154D02*
D03*
D58*
X-1867Y1384D02*
D03*
D59*
X275Y403D02*
D03*
X225D02*
D03*
X175D02*
D03*
X125D02*
D03*
X75D02*
D03*
X25D02*
D03*
X-25D02*
D03*
X-75D02*
D03*
X-125D02*
D03*
X-175D02*
D03*
X-225D02*
D03*
X-275D02*
D03*
Y-403D02*
D03*
X-225D02*
D03*
X-175D02*
D03*
X-125D02*
D03*
X-75D02*
D03*
X-25D02*
D03*
X25D02*
D03*
X75D02*
D03*
X125D02*
D03*
X175D02*
D03*
X225D02*
D03*
X275D02*
D03*
D60*
X-403Y275D02*
D03*
Y225D02*
D03*
Y175D02*
D03*
Y125D02*
D03*
Y75D02*
D03*
Y25D02*
D03*
Y-25D02*
D03*
Y-75D02*
D03*
Y-125D02*
D03*
Y-175D02*
D03*
Y-225D02*
D03*
Y-275D02*
D03*
X403D02*
D03*
Y-225D02*
D03*
Y-175D02*
D03*
Y-125D02*
D03*
Y-75D02*
D03*
Y-25D02*
D03*
Y25D02*
D03*
Y75D02*
D03*
Y125D02*
D03*
Y175D02*
D03*
Y225D02*
D03*
Y275D02*
D03*
D61*
X-588Y-1460D02*
D03*
X-758D02*
D03*
X-1101Y114D02*
D03*
X-931D02*
D03*
X-1101Y267D02*
D03*
X-931D02*
D03*
X1342Y1626D02*
D03*
X1172D02*
D03*
X1198Y-584D02*
D03*
X1368D02*
D03*
X1198Y-762D02*
D03*
X1368D02*
D03*
X1749Y-419D02*
D03*
X1579D02*
D03*
X-1495Y-38D02*
D03*
X-1325D02*
D03*
X-1495Y-241D02*
D03*
X-1325D02*
D03*
X-1960Y876D02*
D03*
X-2130D02*
D03*
X1723Y-1435D02*
D03*
X1553D02*
D03*
X-377Y-1105D02*
D03*
X-207D02*
D03*
X271Y610D02*
D03*
X441D02*
D03*
X-283Y-610D02*
D03*
X-453D02*
D03*
D62*
X-419Y-1655D02*
D03*
Y-1825D02*
D03*
X-165Y-1655D02*
D03*
Y-1825D02*
D03*
X-851Y-784D02*
D03*
Y-614D02*
D03*
X89Y-1444D02*
D03*
Y-1274D02*
D03*
Y-1825D02*
D03*
Y-1655D02*
D03*
X343Y-1825D02*
D03*
Y-1655D02*
D03*
X89Y-1101D02*
D03*
Y-931D02*
D03*
X597Y-1825D02*
D03*
Y-1655D02*
D03*
X-127Y1787D02*
D03*
Y1617D02*
D03*
X622Y1248D02*
D03*
Y1419D02*
D03*
X267Y1248D02*
D03*
Y1419D02*
D03*
X38Y1419D02*
D03*
Y1248D02*
D03*
X737Y-931D02*
D03*
Y-1101D02*
D03*
X-572Y1012D02*
D03*
Y842D02*
D03*
X-724Y271D02*
D03*
Y441D02*
D03*
X38Y842D02*
D03*
Y1012D02*
D03*
X-114Y842D02*
D03*
Y1012D02*
D03*
X-267Y842D02*
D03*
Y1012D02*
D03*
X1346Y-1655D02*
D03*
Y-1825D02*
D03*
X-1003Y-784D02*
D03*
Y-614D02*
D03*
X406Y1787D02*
D03*
Y1617D02*
D03*
X-1118Y791D02*
D03*
Y961D02*
D03*
X1930Y-245D02*
D03*
Y-415D02*
D03*
X-927Y1787D02*
D03*
Y1617D02*
D03*
X-762Y1787D02*
D03*
Y1617D02*
D03*
X749Y-67D02*
D03*
Y-237D02*
D03*
X-572Y271D02*
D03*
Y441D02*
D03*
X927Y-588D02*
D03*
Y-758D02*
D03*
X622Y1012D02*
D03*
Y842D02*
D03*
X889Y390D02*
D03*
Y220D02*
D03*
X445Y1012D02*
D03*
Y842D02*
D03*
X749Y220D02*
D03*
Y390D02*
D03*
D63*
X622Y1809D02*
D03*
Y1619D02*
D03*
D64*
X-1400Y-1800D02*
D03*
M02*
