M48
;Layer_Color=9474304
;FILE_FORMAT=4:2
METRIC,LZ
;TYPE=PLATED
T1F00S00C0.30
T2F00S00C0.40
T3F00S00C0.50
T4F00S00C0.90
T5F00S00C4.50
%
T01
X000791Y000724
X00086
T02
X000749Y-001651
X001676Y-001994
X001397Y-001435
X000876Y-001105
X000927Y-000914
X001067Y-000762
Y-000584
X00061Y-000521
X000495Y-000546
Y-000432
X000267Y-000572
X000279Y-000686
X000089Y-000572
X0Y-00066
X-000063Y-001105
X-000051Y-00127
X000216Y-001016
X000584Y-000914
X000889Y-000241
Y-000063
X000737Y000054
X000152Y000025
X000038Y000076
X-000076Y00014
X-000063Y-000178
X000051Y-000102
X000076Y000572
X000305Y000724
X000572Y000635
X000699
X000406Y000368
X001041Y000394
X000406Y001143
X00047Y00127
X000165Y000952
X000254Y001791
X001003Y001943
X002083Y-000419
X001753Y-000914
X-00019Y-000826
X-000279Y-000749
X-000127Y-00066
X-000559Y-000775
X-000673Y-000686
X-000546Y-000483
X-000406Y-000381
X-000203Y000013
X-000241Y000229
X-000267Y000711
X-000127
X-000445Y000952
X-000775Y001029
X-000838Y001346
X-001029Y001321
Y001448
X-001067Y001778
X-000851Y001943
X-000597Y001727
X-000699Y000699
X-000711Y000572
X-000749Y000127
X-001359Y000114
X-001245Y000267
X-001257Y000787
X-00113Y-000381
Y-000813
X-001257Y-000737
X-001397
Y-00061
X-001524Y-000508
X-000978Y-000927
Y-001054
X-000521Y-001118
Y-001295
X-000432Y-001486
T03
X-001524Y000611
Y000811
T04
X-00067Y-00235
Y-002096
X-000416
X-000162
Y-00235
X-000416
X000092
Y-002096
X000346
X0006
Y-00235
X000346
X000416Y002096
X00067
Y00235
X000416
X000162
Y002096
X-000092
Y00235
X00175Y001308
X002004
Y001054
Y0008
X00175
Y001054
X-000346Y002096
X-0006
Y00235
X-000346
X-001968Y000622
X-002223
X-001753Y000241
Y-000013
Y-000267
X-00188Y-001003
X-002134
Y-001257
X-00188
X-001626
Y-001003
X-001372
Y-001257
T05
X0023Y0
X-0023
M30
