%FSLAX42Y42*%
%MOMM*%
G71*
G01*
G75*
G04 Layer_Color=32896*
%ADD10C,0.25*%
%ADD11C,0.30*%
%ADD12C,0.40*%
%ADD13C,0.50*%
%ADD14C,0.70*%
%ADD15O,0.40X1.00*%
%ADD16O,1.90X1.50*%
%ADD17R,1.90X1.50*%
%ADD18C,1.90*%
%ADD19O,1.50X1.90*%
%ADD20R,1.50X1.90*%
%ADD21C,1.50*%
%ADD22R,1.50X1.50*%
%ADD23R,1.90X1.90*%
%ADD24R,1.90X1.90*%
%ADD25C,4.50*%
%ADD26C,0.90*%
%ADD27R,2.00X5.50*%
%ADD28R,0.60X0.75*%
%ADD29R,0.75X0.60*%
%ADD30R,1.75X1.05*%
%ADD31R,1.75X1.05*%
%ADD32R,1.75X3.40*%
%ADD33O,0.25X1.55*%
%ADD34O,1.55X0.25*%
%ADD35R,1.10X1.00*%
%ADD36R,1.00X1.10*%
%ADD37R,1.50X1.30*%
%ADD38C,1.00*%
%ADD39C,1.30*%
%ADD40C,1.00*%
%ADD41O,0.60X1.20*%
%ADD42O,2.10X1.70*%
%ADD43R,2.10X1.70*%
%ADD44C,2.10*%
%ADD45O,1.70X2.10*%
%ADD46R,1.70X2.10*%
%ADD47C,1.70*%
%ADD48R,1.70X1.70*%
%ADD49R,2.10X2.10*%
%ADD50R,2.10X2.10*%
%ADD51C,4.70*%
%ADD52C,1.10*%
%ADD53R,2.20X5.70*%
%ADD54R,0.80X0.95*%
%ADD55R,0.95X0.80*%
%ADD56R,1.95X1.25*%
%ADD57R,1.95X1.25*%
%ADD58R,1.95X3.60*%
%ADD59O,0.45X1.75*%
%ADD60O,1.75X0.45*%
%ADD61R,1.30X1.20*%
%ADD62R,1.20X1.30*%
%ADD63R,1.70X1.50*%
%ADD64C,3.00*%
%ADD65C,0.25*%
%ADD66C,0.60*%
%ADD67C,0.20*%
D10*
X-1274Y711D02*
G03*
X-1274Y711I-250J0D01*
G01*
X990Y1283D02*
X1140D01*
X990Y-217D02*
Y1283D01*
Y-217D02*
X1140D01*
X1400Y1283D02*
X1550D01*
Y-217D02*
Y1283D01*
X1400Y-217D02*
X1550D01*
D11*
X915Y704D02*
Y1414D01*
X726D02*
X915D01*
X726Y704D02*
Y1414D01*
X-1764Y661D02*
X-1614D01*
X-1434D02*
X-1284D01*
X-1424Y621D02*
X-1304D01*
X-1424Y581D02*
X-1324D01*
X-1444Y541D02*
X-1354D01*
X-1754Y621D02*
X-1624D01*
X-1734Y581D02*
X-1624D01*
X-1704Y541D02*
X-1604D01*
X-1654Y501D02*
X-1394D01*
D65*
X-1052Y1614D02*
G03*
X-1052Y1614I-12J0D01*
G01*
X415Y342D02*
G03*
X415Y342I-12J0D01*
G01*
D66*
X215Y185D02*
G03*
X215Y185I-30J0D01*
G01*
D67*
X-797Y-2477D02*
Y-1969D01*
Y-2477D02*
X727D01*
Y-1969D01*
X-797D02*
X727D01*
X797Y1969D02*
Y2477D01*
X-727D02*
X797D01*
X-727Y1969D02*
Y2477D01*
Y1969D02*
X797D01*
X-622Y-1277D02*
Y-1156D01*
X-902Y-1277D02*
Y-1156D01*
Y-1277D02*
X-812D01*
X-712D02*
X-622D01*
X-802Y-1136D02*
X-722D01*
X-533Y-1823D02*
Y-1703D01*
X-813Y-1823D02*
Y-1703D01*
Y-1823D02*
X-723D01*
X-623D02*
X-533D01*
X-713Y-1683D02*
X-633D01*
X-362Y-1499D02*
X-242D01*
X-362Y-1219D02*
X-242D01*
X-362Y-1309D02*
Y-1219D01*
Y-1499D02*
Y-1409D01*
X-222Y-1399D02*
Y-1319D01*
X382Y-876D02*
X502D01*
X382Y-1156D02*
X502D01*
Y-1066D01*
Y-966D02*
Y-876D01*
X362Y-1056D02*
Y-976D01*
X-356Y1309D02*
Y1429D01*
X-76Y1309D02*
Y1429D01*
X-166D02*
X-76D01*
X-356D02*
X-266D01*
X-256Y1289D02*
X-176D01*
X1568Y-1880D02*
X1688D01*
X1568Y-1600D02*
X1688D01*
X1568Y-1690D02*
Y-1600D01*
Y-1880D02*
Y-1790D01*
X1708Y-1780D02*
Y-1700D01*
X-1056Y-210D02*
X-976D01*
X-1156Y-70D02*
X-1066D01*
X-966D02*
X-876D01*
Y-190D02*
Y-70D01*
X-1156Y-190D02*
Y-70D01*
X-1056Y591D02*
X-976D01*
X-966Y451D02*
X-876D01*
X-1156D02*
X-1066D01*
X-1156D02*
Y571D01*
X-876Y451D02*
Y571D01*
X972Y1675D02*
Y1755D01*
X832Y1574D02*
Y1665D01*
Y1765D02*
Y1855D01*
X952D01*
X832Y1574D02*
X952D01*
X-611Y1289D02*
X-532D01*
X-711Y1429D02*
X-622D01*
X-522D02*
X-432D01*
Y1309D02*
Y1429D01*
X-711Y1309D02*
Y1429D01*
X-1079Y1848D02*
Y1968D01*
X-1359Y1848D02*
Y1968D01*
Y1848D02*
X-1269D01*
X-1169D02*
X-1079D01*
X-1259Y1988D02*
X-1179D01*
X1524Y-723D02*
Y-603D01*
X1804Y-723D02*
Y-603D01*
X1714D02*
X1804D01*
X1524D02*
X1614D01*
X1624Y-743D02*
X1704D01*
X-1722Y1049D02*
Y1719D01*
Y1049D02*
X-1352D01*
Y1719D01*
X-1722D02*
X-1352D01*
X565Y-813D02*
X685D01*
X565Y-533D02*
X685D01*
X565Y-623D02*
Y-533D01*
Y-813D02*
Y-723D01*
X705Y-713D02*
Y-633D01*
X-285Y-285D02*
X285D01*
X-285Y285D02*
X285D01*
X-285Y-285D02*
Y285D01*
X285Y-285D02*
Y285D01*
X-2350Y749D02*
X-1842D01*
Y495D02*
Y749D01*
X-2350Y495D02*
X-1842D01*
X-2350D02*
Y749D01*
X-1880Y-394D02*
X-1626D01*
Y368D01*
X-1880D02*
X-1626D01*
X-1880Y-394D02*
Y368D01*
X-2261Y-1384D02*
X-1245D01*
Y-876D01*
X-2261D02*
X-1245D01*
X-2261Y-1384D02*
Y-876D01*
X1623Y673D02*
Y1435D01*
Y673D02*
X2131D01*
Y1435D01*
X1623D02*
X2131D01*
X1168Y1433D02*
Y1417D01*
X1135Y1383D01*
X1102Y1417D01*
Y1433D01*
X1135Y1383D02*
Y1334D01*
X1002D02*
X1068D01*
X1002Y1400D01*
Y1417D01*
X1018Y1433D01*
X1052D01*
X1068Y1417D01*
X1537Y1459D02*
Y1442D01*
X1503Y1409D01*
X1470Y1442D01*
Y1459D01*
X1503Y1409D02*
Y1359D01*
X1437D02*
X1403D01*
X1420D01*
Y1459D01*
X1437Y1442D01*
X1041Y-2173D02*
X975Y-2273D01*
Y-2173D02*
X1041Y-2273D01*
X891D02*
Y-2173D01*
X941Y-2223D01*
X875D01*
X190Y2640D02*
X124Y2540D01*
Y2640D02*
X190Y2540D01*
X91Y2623D02*
X74Y2640D01*
X41D01*
X24Y2623D01*
Y2607D01*
X41Y2590D01*
X57D01*
X41D01*
X24Y2573D01*
Y2557D01*
X41Y2540D01*
X74D01*
X91Y2557D01*
X-622Y-903D02*
Y-970D01*
X-656Y-1003D01*
X-689Y-970D01*
Y-903D01*
X-722D02*
X-789D01*
X-756D01*
Y-1003D01*
X-889Y-903D02*
X-856Y-920D01*
X-822Y-953D01*
Y-987D01*
X-839Y-1003D01*
X-872D01*
X-889Y-987D01*
Y-970D01*
X-872Y-953D01*
X-822D01*
X-853Y-1892D02*
X-919D01*
X-952Y-1859D01*
X-919Y-1826D01*
X-853D01*
Y-1792D02*
Y-1726D01*
Y-1759D01*
X-952D01*
X-853Y-1626D02*
Y-1692D01*
X-903D01*
X-886Y-1659D01*
Y-1642D01*
X-903Y-1626D01*
X-936D01*
X-952Y-1642D01*
Y-1676D01*
X-936Y-1692D01*
X-2Y-1486D02*
X-68D01*
X-102Y-1453D01*
X-68Y-1419D01*
X-2D01*
Y-1386D02*
Y-1319D01*
Y-1353D01*
X-102D01*
Y-1236D02*
X-2D01*
X-52Y-1286D01*
Y-1219D01*
X265Y-1143D02*
X198D01*
X165Y-1110D01*
X198Y-1076D01*
X265D01*
Y-1043D02*
Y-976D01*
Y-1010D01*
X165D01*
X248Y-943D02*
X265Y-926D01*
Y-893D01*
X248Y-876D01*
X232D01*
X215Y-893D01*
Y-910D01*
Y-893D01*
X198Y-876D01*
X182D01*
X165Y-893D01*
Y-926D01*
X182Y-943D01*
X-268Y1473D02*
X-335D01*
X-368Y1507D01*
X-335Y1540D01*
X-268D01*
Y1573D02*
Y1640D01*
Y1606D01*
X-368D01*
Y1740D02*
Y1673D01*
X-302Y1740D01*
X-285D01*
X-268Y1723D01*
Y1690D01*
X-285Y1673D01*
X1954Y-1778D02*
X1888D01*
X1854Y-1745D01*
X1888Y-1711D01*
X1954D01*
Y-1678D02*
Y-1611D01*
Y-1645D01*
X1854D01*
Y-1578D02*
Y-1545D01*
Y-1561D01*
X1954D01*
X1938Y-1578D01*
X-787Y-357D02*
Y-424D01*
X-821Y-457D01*
X-854Y-424D01*
Y-357D01*
X-887D02*
Y-457D01*
X-937D01*
X-954Y-441D01*
Y-374D01*
X-937Y-357D01*
X-887D01*
X-1054D02*
X-1021Y-374D01*
X-987Y-407D01*
Y-441D01*
X-1004Y-457D01*
X-1037D01*
X-1054Y-441D01*
Y-424D01*
X-1037Y-407D01*
X-987D01*
X-865Y699D02*
X-932D01*
X-965Y732D01*
X-932Y765D01*
X-865D01*
Y798D02*
X-965D01*
Y848D01*
X-949Y865D01*
X-882D01*
X-865Y848D01*
Y798D01*
Y965D02*
Y898D01*
X-915D01*
X-899Y932D01*
Y948D01*
X-915Y965D01*
X-949D01*
X-965Y948D01*
Y915D01*
X-949Y898D01*
X1346Y2107D02*
Y2040D01*
X1313Y2007D01*
X1280Y2040D01*
Y2107D01*
X1246D02*
Y2007D01*
X1196D01*
X1180Y2023D01*
Y2090D01*
X1196Y2107D01*
X1246D01*
X1096Y2007D02*
Y2107D01*
X1146Y2057D01*
X1080D01*
X-421Y1473D02*
X-487D01*
X-521Y1507D01*
X-487Y1540D01*
X-421D01*
Y1573D02*
X-521D01*
Y1623D01*
X-504Y1640D01*
X-437D01*
X-421Y1623D01*
Y1573D01*
X-437Y1673D02*
X-421Y1690D01*
Y1723D01*
X-437Y1740D01*
X-454D01*
X-471Y1723D01*
Y1706D01*
Y1723D01*
X-487Y1740D01*
X-504D01*
X-521Y1723D01*
Y1690D01*
X-504Y1673D01*
X-1092Y2221D02*
Y2154D01*
X-1126Y2121D01*
X-1159Y2154D01*
Y2221D01*
X-1192D02*
Y2121D01*
X-1242D01*
X-1259Y2138D01*
Y2204D01*
X-1242Y2221D01*
X-1192D01*
X-1359Y2121D02*
X-1292D01*
X-1359Y2188D01*
Y2204D01*
X-1342Y2221D01*
X-1309D01*
X-1292Y2204D01*
X2095Y-611D02*
Y-678D01*
X2062Y-711D01*
X2029Y-678D01*
Y-611D01*
X1996D02*
Y-711D01*
X1946D01*
X1929Y-695D01*
Y-628D01*
X1946Y-611D01*
X1996D01*
X1896Y-711D02*
X1862D01*
X1879D01*
Y-611D01*
X1896Y-628D01*
X-1473Y1891D02*
Y1807D01*
X-1490Y1791D01*
X-1523D01*
X-1540Y1807D01*
Y1891D01*
X-1573Y1874D02*
X-1590Y1891D01*
X-1623D01*
X-1640Y1874D01*
Y1857D01*
X-1623Y1841D01*
X-1606D01*
X-1623D01*
X-1640Y1824D01*
Y1807D01*
X-1623Y1791D01*
X-1590D01*
X-1573Y1807D01*
X432Y-599D02*
Y-682D01*
X415Y-699D01*
X382D01*
X365Y-682D01*
Y-599D01*
X265Y-699D02*
X332D01*
X265Y-632D01*
Y-615D01*
X282Y-599D01*
X315D01*
X332Y-615D01*
X597Y532D02*
Y448D01*
X580Y432D01*
X547D01*
X530Y448D01*
Y532D01*
X497Y432D02*
X464D01*
X480D01*
Y532D01*
X497Y515D01*
X-864Y-1511D02*
Y-1411D01*
X-914D01*
X-930Y-1428D01*
Y-1461D01*
X-914Y-1478D01*
X-864D01*
X-897D02*
X-930Y-1511D01*
X-964Y-1428D02*
X-980Y-1411D01*
X-1014D01*
X-1030Y-1428D01*
Y-1445D01*
X-1014Y-1461D01*
X-997D01*
X-1014D01*
X-1030Y-1478D01*
Y-1495D01*
X-1014Y-1511D01*
X-980D01*
X-964Y-1495D01*
X-1130Y-1511D02*
X-1064D01*
X-1130Y-1445D01*
Y-1428D01*
X-1114Y-1411D01*
X-1080D01*
X-1064Y-1428D01*
X-343Y-1854D02*
X-243D01*
Y-1804D01*
X-260Y-1788D01*
X-293D01*
X-310Y-1804D01*
Y-1854D01*
Y-1821D02*
X-343Y-1788D01*
X-260Y-1754D02*
X-243Y-1738D01*
Y-1704D01*
X-260Y-1688D01*
X-276D01*
X-293Y-1704D01*
Y-1721D01*
Y-1704D01*
X-310Y-1688D01*
X-326D01*
X-343Y-1704D01*
Y-1738D01*
X-326Y-1754D01*
X-343Y-1654D02*
Y-1621D01*
Y-1638D01*
X-243D01*
X-260Y-1654D01*
X-89Y-1867D02*
X11D01*
Y-1817D01*
X-6Y-1800D01*
X-39D01*
X-56Y-1817D01*
Y-1867D01*
Y-1834D02*
X-89Y-1800D01*
X-6Y-1767D02*
X11Y-1750D01*
Y-1717D01*
X-6Y-1700D01*
X-22D01*
X-39Y-1717D01*
Y-1734D01*
Y-1717D01*
X-56Y-1700D01*
X-72D01*
X-89Y-1717D01*
Y-1750D01*
X-72Y-1767D01*
X-6Y-1667D02*
X11Y-1650D01*
Y-1617D01*
X-6Y-1600D01*
X-72D01*
X-89Y-1617D01*
Y-1650D01*
X-72Y-1667D01*
X-6D01*
X-737Y-826D02*
X-637D01*
Y-776D01*
X-653Y-759D01*
X-687D01*
X-703Y-776D01*
Y-826D01*
Y-792D02*
X-737Y-759D01*
Y-659D02*
Y-726D01*
X-670Y-659D01*
X-653D01*
X-637Y-676D01*
Y-709D01*
X-653Y-726D01*
X-720Y-626D02*
X-737Y-609D01*
Y-576D01*
X-720Y-559D01*
X-653D01*
X-637Y-576D01*
Y-609D01*
X-653Y-626D01*
X-670D01*
X-687Y-609D01*
Y-559D01*
X190Y-1486D02*
X290D01*
Y-1436D01*
X274Y-1419D01*
X240D01*
X224Y-1436D01*
Y-1486D01*
Y-1453D02*
X190Y-1419D01*
Y-1319D02*
Y-1386D01*
X257Y-1319D01*
X274D01*
X290Y-1336D01*
Y-1369D01*
X274Y-1386D01*
Y-1286D02*
X290Y-1269D01*
Y-1236D01*
X274Y-1219D01*
X257D01*
X240Y-1236D01*
X224Y-1219D01*
X207D01*
X190Y-1236D01*
Y-1269D01*
X207Y-1286D01*
X224D01*
X240Y-1269D01*
X257Y-1286D01*
X274D01*
X240Y-1269D02*
Y-1236D01*
X165Y-1867D02*
X265D01*
Y-1817D01*
X248Y-1800D01*
X215D01*
X198Y-1817D01*
Y-1867D01*
Y-1834D02*
X165Y-1800D01*
Y-1700D02*
Y-1767D01*
X232Y-1700D01*
X248D01*
X265Y-1717D01*
Y-1750D01*
X248Y-1767D01*
X265Y-1667D02*
Y-1600D01*
X248D01*
X182Y-1667D01*
X165D01*
X419Y-1867D02*
X519D01*
Y-1817D01*
X502Y-1800D01*
X469D01*
X452Y-1817D01*
Y-1867D01*
Y-1834D02*
X419Y-1800D01*
Y-1700D02*
Y-1767D01*
X486Y-1700D01*
X502D01*
X519Y-1717D01*
Y-1750D01*
X502Y-1767D01*
X519Y-1600D02*
X502Y-1634D01*
X469Y-1667D01*
X436D01*
X419Y-1650D01*
Y-1617D01*
X436Y-1600D01*
X452D01*
X469Y-1617D01*
Y-1667D01*
X-102Y-1143D02*
X-2D01*
Y-1093D01*
X-18Y-1076D01*
X-52D01*
X-68Y-1093D01*
Y-1143D01*
Y-1110D02*
X-102Y-1076D01*
Y-976D02*
Y-1043D01*
X-35Y-976D01*
X-18D01*
X-2Y-993D01*
Y-1026D01*
X-18Y-1043D01*
X-2Y-876D02*
Y-943D01*
X-52D01*
X-35Y-910D01*
Y-893D01*
X-52Y-876D01*
X-85D01*
X-102Y-893D01*
Y-926D01*
X-85Y-943D01*
X826Y-1842D02*
X925D01*
Y-1792D01*
X909Y-1775D01*
X875D01*
X859Y-1792D01*
Y-1842D01*
Y-1808D02*
X826Y-1775D01*
Y-1675D02*
Y-1742D01*
X892Y-1675D01*
X909D01*
X925Y-1692D01*
Y-1725D01*
X909Y-1742D01*
X826Y-1592D02*
X925D01*
X875Y-1642D01*
Y-1575D01*
X-1181Y38D02*
Y138D01*
X-1231D01*
X-1248Y121D01*
Y88D01*
X-1231Y71D01*
X-1181D01*
X-1214D02*
X-1248Y38D01*
X-1348D02*
X-1281D01*
X-1348Y105D01*
Y121D01*
X-1331Y138D01*
X-1298D01*
X-1281Y121D01*
X-1381D02*
X-1398Y138D01*
X-1431D01*
X-1448Y121D01*
Y105D01*
X-1431Y88D01*
X-1414D01*
X-1431D01*
X-1448Y71D01*
Y55D01*
X-1431Y38D01*
X-1398D01*
X-1381Y55D01*
X-1194Y267D02*
Y367D01*
X-1244D01*
X-1260Y350D01*
Y317D01*
X-1244Y300D01*
X-1194D01*
X-1227D02*
X-1260Y267D01*
X-1360D02*
X-1294D01*
X-1360Y333D01*
Y350D01*
X-1344Y367D01*
X-1310D01*
X-1294Y350D01*
X-1460Y267D02*
X-1394D01*
X-1460Y333D01*
Y350D01*
X-1444Y367D01*
X-1410D01*
X-1394Y350D01*
X1384Y1765D02*
Y1865D01*
X1334D01*
X1318Y1849D01*
Y1815D01*
X1334Y1799D01*
X1384D01*
X1351D02*
X1318Y1765D01*
X1218D02*
X1284D01*
X1218Y1832D01*
Y1849D01*
X1234Y1865D01*
X1268D01*
X1284Y1849D01*
X1184Y1765D02*
X1151D01*
X1168D01*
Y1865D01*
X1184Y1849D01*
X-38Y1676D02*
X62D01*
Y1726D01*
X45Y1743D01*
X12D01*
X-5Y1726D01*
Y1676D01*
Y1710D02*
X-38Y1743D01*
Y1843D02*
Y1776D01*
X29Y1843D01*
X45D01*
X62Y1826D01*
Y1793D01*
X45Y1776D01*
Y1876D02*
X62Y1893D01*
Y1926D01*
X45Y1943D01*
X-21D01*
X-38Y1926D01*
Y1893D01*
X-21Y1876D01*
X45D01*
X432Y1219D02*
X532D01*
Y1269D01*
X515Y1286D01*
X482D01*
X465Y1269D01*
Y1219D01*
Y1253D02*
X432Y1286D01*
Y1319D02*
Y1352D01*
Y1336D01*
X532D01*
X515Y1319D01*
X448Y1402D02*
X432Y1419D01*
Y1452D01*
X448Y1469D01*
X515D01*
X532Y1452D01*
Y1419D01*
X515Y1402D01*
X498D01*
X482Y1419D01*
Y1469D01*
X216Y1499D02*
X316D01*
Y1549D01*
X299Y1565D01*
X266D01*
X249Y1549D01*
Y1499D01*
Y1532D02*
X216Y1565D01*
Y1599D02*
Y1632D01*
Y1615D01*
X316D01*
X299Y1599D01*
Y1682D02*
X316Y1699D01*
Y1732D01*
X299Y1749D01*
X283D01*
X266Y1732D01*
X249Y1749D01*
X233D01*
X216Y1732D01*
Y1699D01*
X233Y1682D01*
X249D01*
X266Y1699D01*
X283Y1682D01*
X299D01*
X266Y1699D02*
Y1732D01*
X102Y1219D02*
X202D01*
Y1269D01*
X185Y1286D01*
X152D01*
X135Y1269D01*
Y1219D01*
Y1253D02*
X102Y1286D01*
Y1319D02*
Y1352D01*
Y1336D01*
X202D01*
X185Y1319D01*
X202Y1402D02*
Y1469D01*
X185D01*
X118Y1402D01*
X102D01*
X1397Y-495D02*
Y-395D01*
X1347D01*
X1330Y-412D01*
Y-445D01*
X1347Y-462D01*
X1397D01*
X1364D02*
X1330Y-495D01*
X1297D02*
X1264D01*
X1280D01*
Y-395D01*
X1297Y-412D01*
X1147Y-395D02*
X1180Y-412D01*
X1214Y-445D01*
Y-479D01*
X1197Y-495D01*
X1164D01*
X1147Y-479D01*
Y-462D01*
X1164Y-445D01*
X1214D01*
X1410Y-965D02*
Y-865D01*
X1360D01*
X1343Y-882D01*
Y-915D01*
X1360Y-932D01*
X1410D01*
X1376D02*
X1343Y-965D01*
X1310D02*
X1276D01*
X1293D01*
Y-865D01*
X1310Y-882D01*
X1160Y-865D02*
X1226D01*
Y-915D01*
X1193Y-899D01*
X1176D01*
X1160Y-915D01*
Y-949D01*
X1176Y-965D01*
X1210D01*
X1226Y-949D01*
X1753Y-330D02*
Y-230D01*
X1703D01*
X1686Y-247D01*
Y-280D01*
X1703Y-297D01*
X1753D01*
X1719D02*
X1686Y-330D01*
X1653D02*
X1619D01*
X1636D01*
Y-230D01*
X1653Y-247D01*
X1519Y-330D02*
Y-230D01*
X1569Y-280D01*
X1503D01*
X889Y-1308D02*
Y-1208D01*
X839D01*
X822Y-1225D01*
Y-1258D01*
X839Y-1275D01*
X889D01*
X856D02*
X822Y-1308D01*
X789D02*
X756D01*
X772D01*
Y-1208D01*
X789Y-1225D01*
X706D02*
X689Y-1208D01*
X656D01*
X639Y-1225D01*
Y-1241D01*
X656Y-1258D01*
X672D01*
X656D01*
X639Y-1275D01*
Y-1291D01*
X656Y-1308D01*
X689D01*
X706Y-1291D01*
X-762Y813D02*
X-662D01*
Y863D01*
X-679Y879D01*
X-712D01*
X-729Y863D01*
Y813D01*
Y846D02*
X-762Y879D01*
Y913D02*
Y946D01*
Y929D01*
X-662D01*
X-679Y913D01*
X-762Y1063D02*
Y996D01*
X-695Y1063D01*
X-679D01*
X-662Y1046D01*
Y1013D01*
X-679Y996D01*
X-1588Y38D02*
X-1488D01*
Y88D01*
X-1504Y105D01*
X-1538D01*
X-1554Y88D01*
Y38D01*
Y71D02*
X-1588Y105D01*
Y138D02*
Y171D01*
Y155D01*
X-1488D01*
X-1504Y138D01*
X-1588Y221D02*
Y255D01*
Y238D01*
X-1488D01*
X-1504Y221D01*
X-1270Y-432D02*
Y-332D01*
X-1320D01*
X-1337Y-348D01*
Y-382D01*
X-1320Y-398D01*
X-1270D01*
X-1303D02*
X-1337Y-432D01*
X-1370D02*
X-1403D01*
X-1387D01*
Y-332D01*
X-1370Y-348D01*
X-1453D02*
X-1470Y-332D01*
X-1503D01*
X-1520Y-348D01*
Y-415D01*
X-1503Y-432D01*
X-1470D01*
X-1453Y-415D01*
Y-348D01*
X-2057Y978D02*
Y1078D01*
X-2107D01*
X-2124Y1061D01*
Y1028D01*
X-2107Y1011D01*
X-2057D01*
X-2091D02*
X-2124Y978D01*
X-2157Y995D02*
X-2174Y978D01*
X-2207D01*
X-2224Y995D01*
Y1061D01*
X-2207Y1078D01*
X-2174D01*
X-2157Y1061D01*
Y1045D01*
X-2174Y1028D01*
X-2224D01*
X1715Y-1346D02*
Y-1246D01*
X1665D01*
X1648Y-1263D01*
Y-1296D01*
X1665Y-1313D01*
X1715D01*
X1681D02*
X1648Y-1346D01*
X1615Y-1263D02*
X1598Y-1246D01*
X1565D01*
X1548Y-1263D01*
Y-1280D01*
X1565Y-1296D01*
X1548Y-1313D01*
Y-1330D01*
X1565Y-1346D01*
X1598D01*
X1615Y-1330D01*
Y-1313D01*
X1598Y-1296D01*
X1615Y-1280D01*
Y-1263D01*
X1598Y-1296D02*
X1565D01*
X-762Y584D02*
X-662D01*
Y634D01*
X-679Y651D01*
X-712D01*
X-729Y634D01*
Y584D01*
Y618D02*
X-762Y651D01*
X-662Y684D02*
Y751D01*
X-679D01*
X-745Y684D01*
X-762D01*
X114Y1080D02*
Y1179D01*
X64D01*
X48Y1163D01*
Y1129D01*
X64Y1113D01*
X114D01*
X81D02*
X48Y1080D01*
X-52Y1179D02*
X-19Y1163D01*
X14Y1129D01*
Y1096D01*
X-2Y1080D01*
X-36D01*
X-52Y1096D01*
Y1113D01*
X-36Y1129D01*
X14D01*
X-175Y572D02*
X-75D01*
Y621D01*
X-92Y638D01*
X-125D01*
X-142Y621D01*
Y572D01*
Y605D02*
X-175Y638D01*
X-75Y738D02*
Y671D01*
X-125D01*
X-108Y705D01*
Y721D01*
X-125Y738D01*
X-158D01*
X-175Y721D01*
Y688D01*
X-158Y671D01*
X-470Y673D02*
X-370D01*
Y723D01*
X-387Y740D01*
X-420D01*
X-437Y723D01*
Y673D01*
Y706D02*
X-470Y740D01*
Y823D02*
X-370D01*
X-420Y773D01*
Y840D01*
X1130Y-1816D02*
X1230D01*
Y-1766D01*
X1214Y-1749D01*
X1180D01*
X1164Y-1766D01*
Y-1816D01*
Y-1783D02*
X1130Y-1749D01*
X1214Y-1716D02*
X1230Y-1699D01*
Y-1666D01*
X1214Y-1649D01*
X1197D01*
X1180Y-1666D01*
Y-1683D01*
Y-1666D01*
X1164Y-1649D01*
X1147D01*
X1130Y-1666D01*
Y-1699D01*
X1147Y-1716D01*
X-1206Y-775D02*
X-1107D01*
Y-725D01*
X-1123Y-708D01*
X-1157D01*
X-1173Y-725D01*
Y-775D01*
Y-741D02*
X-1206Y-708D01*
Y-608D02*
Y-675D01*
X-1140Y-608D01*
X-1123D01*
X-1107Y-625D01*
Y-658D01*
X-1123Y-675D01*
X-229Y-1016D02*
Y-916D01*
X-279D01*
X-295Y-933D01*
Y-966D01*
X-279Y-983D01*
X-229D01*
X-262D02*
X-295Y-1016D01*
X-329D02*
X-362D01*
X-345D01*
Y-916D01*
X-329Y-933D01*
X-2413Y572D02*
Y671D01*
X-2463D01*
X-2480Y655D01*
Y621D01*
X-2463Y605D01*
X-2413D01*
X-2580Y572D02*
X-2513D01*
X-2580Y638D01*
Y655D01*
X-2563Y671D01*
X-2530D01*
X-2513Y655D01*
X-1956Y-419D02*
Y-319D01*
X-2006D01*
X-2022Y-336D01*
Y-369D01*
X-2006Y-386D01*
X-1956D01*
X-2056Y-419D02*
X-2089D01*
X-2072D01*
Y-319D01*
X-2056Y-336D01*
X864Y1992D02*
Y1892D01*
X797D01*
X764D02*
X730D01*
X747D01*
Y1992D01*
X764Y1976D01*
X378Y1963D02*
X395Y1980D01*
X428D01*
X445Y1963D01*
Y1896D01*
X428Y1880D01*
X395D01*
X378Y1896D01*
X345Y1880D02*
X311D01*
X328D01*
Y1980D01*
X345Y1963D01*
X195Y1980D02*
X261D01*
Y1930D01*
X228Y1946D01*
X211D01*
X195Y1930D01*
Y1896D01*
X211Y1880D01*
X245D01*
X261Y1896D01*
X-1019Y1137D02*
X-1002Y1154D01*
X-969D01*
X-952Y1137D01*
Y1071D01*
X-969Y1054D01*
X-1002D01*
X-1019Y1071D01*
X-1052Y1054D02*
X-1086D01*
X-1069D01*
Y1154D01*
X-1052Y1137D01*
X-1186Y1054D02*
Y1154D01*
X-1136Y1104D01*
X-1202D01*
X1938Y-73D02*
X1954Y-90D01*
Y-123D01*
X1938Y-140D01*
X1871D01*
X1854Y-123D01*
Y-90D01*
X1871Y-73D01*
X1854Y-40D02*
Y-6D01*
Y-23D01*
X1954D01*
X1938Y-40D01*
Y44D02*
X1954Y60D01*
Y94D01*
X1938Y110D01*
X1921D01*
X1904Y94D01*
Y77D01*
Y94D01*
X1888Y110D01*
X1871D01*
X1854Y94D01*
Y60D01*
X1871Y44D01*
X-867Y1493D02*
X-850Y1510D01*
X-817D01*
X-800Y1493D01*
Y1426D01*
X-817Y1410D01*
X-850D01*
X-867Y1426D01*
X-900Y1410D02*
X-933D01*
X-917D01*
Y1510D01*
X-900Y1493D01*
X-1050Y1410D02*
X-983D01*
X-1050Y1476D01*
Y1493D01*
X-1033Y1510D01*
X-1000D01*
X-983Y1493D01*
X-511Y1849D02*
X-494Y1865D01*
X-461D01*
X-445Y1849D01*
Y1782D01*
X-461Y1765D01*
X-494D01*
X-511Y1782D01*
X-544Y1765D02*
X-578D01*
X-561D01*
Y1865D01*
X-544Y1849D01*
X-628Y1765D02*
X-661D01*
X-644D01*
Y1865D01*
X-628Y1849D01*
X-1807Y1023D02*
X-1790Y1040D01*
X-1757D01*
X-1740Y1023D01*
Y956D01*
X-1757Y940D01*
X-1790D01*
X-1807Y956D01*
X-1840Y940D02*
X-1873D01*
X-1857D01*
Y1040D01*
X-1840Y1023D01*
X-1923D02*
X-1940Y1040D01*
X-1973D01*
X-1990Y1023D01*
Y956D01*
X-1973Y940D01*
X-1940D01*
X-1923Y956D01*
Y1023D01*
X655Y-149D02*
X671Y-166D01*
Y-199D01*
X655Y-216D01*
X588D01*
X572Y-199D01*
Y-166D01*
X588Y-149D01*
Y-116D02*
X572Y-99D01*
Y-66D01*
X588Y-49D01*
X655D01*
X671Y-66D01*
Y-99D01*
X655Y-116D01*
X638D01*
X621Y-99D01*
Y-49D01*
X-526Y625D02*
X-510Y609D01*
Y575D01*
X-526Y559D01*
X-593D01*
X-610Y575D01*
Y609D01*
X-593Y625D01*
X-526Y659D02*
X-510Y675D01*
Y709D01*
X-526Y725D01*
X-543D01*
X-560Y709D01*
X-576Y725D01*
X-593D01*
X-610Y709D01*
Y675D01*
X-593Y659D01*
X-576D01*
X-560Y675D01*
X-543Y659D01*
X-526D01*
X-560Y675D02*
Y709D01*
X172Y600D02*
X189Y583D01*
Y550D01*
X172Y533D01*
X106D01*
X89Y550D01*
Y583D01*
X106Y600D01*
X189Y633D02*
Y700D01*
X172D01*
X106Y633D01*
X89D01*
X-333Y-729D02*
X-317Y-713D01*
X-283D01*
X-267Y-729D01*
Y-796D01*
X-283Y-813D01*
X-317D01*
X-333Y-796D01*
X-433Y-713D02*
X-400Y-729D01*
X-367Y-763D01*
Y-796D01*
X-383Y-813D01*
X-417D01*
X-433Y-796D01*
Y-779D01*
X-417Y-763D01*
X-367D01*
X987Y-369D02*
X1004Y-352D01*
X1037D01*
X1054Y-369D01*
Y-435D01*
X1037Y-452D01*
X1004D01*
X987Y-435D01*
X887Y-352D02*
X954D01*
Y-402D01*
X921Y-385D01*
X904D01*
X887Y-402D01*
Y-435D01*
X904Y-452D01*
X937D01*
X954Y-435D01*
X276Y871D02*
X293Y887D01*
X326D01*
X343Y871D01*
Y804D01*
X326Y787D01*
X293D01*
X276Y804D01*
X193Y787D02*
Y887D01*
X243Y837D01*
X176D01*
X934Y549D02*
X951Y533D01*
Y499D01*
X934Y483D01*
X868D01*
X851Y499D01*
Y533D01*
X868Y549D01*
X934Y583D02*
X951Y599D01*
Y633D01*
X934Y649D01*
X918D01*
X901Y633D01*
Y616D01*
Y633D01*
X884Y649D01*
X868D01*
X851Y633D01*
Y599D01*
X868Y583D01*
X276Y1074D02*
X293Y1091D01*
X326D01*
X343Y1074D01*
Y1007D01*
X326Y991D01*
X293D01*
X276Y1007D01*
X176Y991D02*
X243D01*
X176Y1057D01*
Y1074D01*
X193Y1091D01*
X226D01*
X243Y1074D01*
X655Y308D02*
X671Y291D01*
Y258D01*
X655Y241D01*
X588D01*
X572Y258D01*
Y291D01*
X588Y308D01*
X572Y341D02*
Y375D01*
Y358D01*
X671D01*
X655Y341D01*
X-2134Y-726D02*
X-2200Y-826D01*
Y-726D02*
X-2134Y-826D01*
X-2234D02*
X-2267D01*
X-2250D01*
Y-726D01*
X-2234Y-742D01*
X2362Y1027D02*
X2296Y927D01*
Y1027D02*
X2362Y927D01*
X2196D02*
X2262D01*
X2196Y994D01*
Y1010D01*
X2212Y1027D01*
X2246D01*
X2262Y1010D01*
X-851Y-2108D02*
X-884D01*
X-868D01*
Y-2008D01*
X-851Y-2025D01*
X-1001Y-2108D02*
X-934D01*
X-1001Y-2042D01*
Y-2025D01*
X-984Y-2008D01*
X-951D01*
X-934Y-2025D01*
X-918Y-2262D02*
X-884Y-2279D01*
X-851Y-2312D01*
Y-2346D01*
X-868Y-2362D01*
X-901D01*
X-918Y-2346D01*
Y-2329D01*
X-901Y-2312D01*
X-851D01*
X785Y-2375D02*
X751D01*
X768D01*
Y-2275D01*
X785Y-2292D01*
X800Y-2021D02*
X733D01*
Y-2038D01*
X800Y-2104D01*
Y-2121D01*
X838Y2134D02*
X872D01*
X855D01*
Y2034D01*
X838Y2050D01*
X988Y2134D02*
X922D01*
X988Y2067D01*
Y2050D01*
X971Y2034D01*
X938D01*
X922Y2050D01*
X918Y2275D02*
X884Y2292D01*
X851Y2325D01*
Y2358D01*
X868Y2375D01*
X901D01*
X918Y2358D01*
Y2342D01*
X901Y2325D01*
X851D01*
X-787Y2388D02*
X-754D01*
X-771D01*
Y2288D01*
X-787Y2304D01*
X-838Y2046D02*
X-772D01*
Y2063D01*
X-838Y2130D01*
Y2146D01*
X-1210Y-941D02*
X-1143D01*
Y-991D01*
X-1176Y-975D01*
X-1193D01*
X-1210Y-991D01*
Y-1025D01*
X-1193Y-1041D01*
X-1160D01*
X-1143Y-1025D01*
X-1168Y-1308D02*
X-1202D01*
X-1185D01*
Y-1208D01*
X-1168Y-1225D01*
X-2336Y-1308D02*
Y-1208D01*
X-2286Y-1258D01*
X-2353D01*
X-2286Y-971D02*
X-2303Y-954D01*
X-2336D01*
X-2353Y-971D01*
Y-987D01*
X-2336Y-1004D01*
X-2353Y-1021D01*
Y-1037D01*
X-2336Y-1054D01*
X-2303D01*
X-2286Y-1037D01*
Y-1021D01*
X-2303Y-1004D01*
X-2286Y-987D01*
Y-971D01*
X-2303Y-1004D02*
X-2336D01*
X2094Y1540D02*
X2077Y1506D01*
X2044Y1473D01*
X2011D01*
X1994Y1490D01*
Y1523D01*
X2011Y1540D01*
X2027D01*
X2044Y1523D01*
Y1473D01*
X1811D02*
X1827Y1490D01*
Y1523D01*
X1811Y1540D01*
X1794D01*
X1777Y1523D01*
Y1506D01*
Y1523D01*
X1761Y1540D01*
X1744D01*
X1727Y1523D01*
Y1490D01*
X1744Y1473D01*
X1702Y609D02*
Y643D01*
Y626D01*
X1802D01*
X1785Y609D01*
X1981Y621D02*
X2081D01*
X2031Y572D01*
Y638D01*
M02*
